<?xml version="1.0" standalone="no"?>
<!DOCTYPE svg PUBLIC "-//W3C//DTD SVG 20010904//EN"
 "http://www.w3.org/TR/2001/REC-SVG-20010904/DTD/svg10.dtd">
<svg version="1.0" xmlns="http://www.w3.org/2000/svg"
 width="1024.000000pt" height="1024.000000pt" viewBox="0 0 1024.000000 1024.000000"
 preserveAspectRatio="xMidYMid meet">

<g transform="translate(0.000000,1024.000000) scale(0.100000,-0.100000)"
fill="#000000" stroke="none">
<path d="M4835 9780 c-884 -58 -1716 -352 -2420 -855 -701 -500 -1257 -1188
-1585 -1960 -244 -576 -359 -1102 -376 -1730 -42 -1464 615 -2865 1773 -3783
400 -317 876 -576 1371 -746 792 -272 1622 -326 2452 -160 225 45 361 81 578
156 976 333 1800 967 2367 1818 150 226 225 356 326 565 430 892 566 1882 393
2863 -251 1427 -1197 2693 -2501 3345 -520 261 -1093 424 -1676 477 -158 14
-552 20 -702 10z m600 -130 c1093 -81 2076 -522 2849 -1280 396 -389 672 -766
905 -1240 386 -782 532 -1617 440 -2512 -6 -65 -15 -115 -19 -113 -4 2 -5 -6
-3 -19 5 -24 -24 -199 -58 -356 -57 -258 -211 -729 -237 -723 -6 1 -8 -5 -5
-15 4 -16 -18 -70 -100 -245 -27 -59 -35 -68 -54 -64 -12 2 -20 1 -18 -4 3 -4
1 -10 -5 -14 -15 -9 -12 -25 5 -25 18 0 19 -5 4 -32 -9 -17 -13 -18 -21 -7 -8
11 -8 9 -4 -5 5 -16 -52 -139 -73 -156 -4 -3 -12 -17 -18 -33 -7 -15 -17 -27
-23 -27 -6 0 -3 11 6 24 15 24 15 25 -11 22 -14 -2 -31 -8 -37 -14 -8 -8 -4
-10 13 -6 13 2 18 2 11 -2 -6 -3 -10 -9 -7 -14 3 -4 -2 -10 -10 -14 -8 -3 -17
-1 -20 4 -3 5 -21 2 -40 -5 -31 -13 -34 -13 -37 3 -2 12 -6 14 -11 5 -5 -8 0
-20 13 -30 21 -18 28 -63 10 -63 -5 0 -10 5 -10 10 0 6 -7 10 -15 10 -8 0 -15
-4 -15 -10 0 -5 5 -10 10 -10 6 0 10 -4 10 -8 0 -5 -10 -8 -22 -8 -17 1 -24
-5 -26 -23 -2 -15 0 -21 7 -17 6 4 11 0 11 -8 0 -9 -6 -16 -14 -16 -8 0 -18
-9 -21 -20 -3 -11 -14 -20 -23 -20 -15 0 -15 -2 -2 -10 8 -5 10 -10 4 -10 -14
0 -26 -28 -18 -41 3 -5 10 -6 16 -3 7 4 6 9 -2 14 -7 4 0 12 19 20 17 7 28 16
25 21 -3 5 0 9 6 9 7 0 9 -8 5 -20 -10 -31 8 -24 28 11 10 18 21 28 25 24 4
-4 1 -10 -6 -12 -6 -3 -12 -10 -12 -18 0 -22 -28 -39 -43 -26 -11 8 -17 5 -27
-13 -7 -14 -10 -32 -7 -41 5 -13 3 -14 -13 -5 -11 6 -20 17 -20 25 0 8 -4 15
-9 15 -13 0 -21 -27 -14 -47 4 -11 3 -14 -5 -9 -7 4 -12 14 -12 22 0 8 -4 14
-10 14 -5 0 -10 -4 -10 -10 0 -24 -20 -50 -38 -50 -5 0 -9 -7 -9 -14 0 -8 3
-15 6 -14 19 2 21 -4 6 -19 -13 -13 -18 -14 -25 -3 -4 7 -15 10 -25 7 -9 -4
-13 -11 -10 -17 3 -5 -9 -17 -28 -26 -18 -9 -39 -25 -46 -36 -7 -11 -8 -17 -2
-13 6 3 11 2 11 -3 0 -6 -7 -12 -15 -16 -8 -3 -15 0 -15 6 0 7 -6 3 -14 -7
-12 -16 -16 -17 -30 -6 -11 9 -16 10 -16 2 0 -6 6 -11 13 -11 8 0 7 -4 -3 -10
-8 -5 -11 -10 -6 -10 5 0 3 -7 -4 -15 -9 -11 -16 -12 -26 -4 -10 8 -12 6 -9
-9 4 -25 -17 -45 -42 -40 -10 2 -26 -5 -36 -15 -10 -10 -23 -15 -29 -11 -8 5
-9 2 -5 -9 4 -11 1 -17 -9 -17 -8 0 -12 4 -9 10 3 6 -1 7 -10 3 -12 -4 -13 -8
-5 -13 16 -10 -5 -24 -25 -16 -9 3 -12 0 -9 -9 5 -12 11 -12 41 0 43 18 43 18
43 3 0 -6 -3 -8 -7 -5 -3 4 -11 -3 -17 -15 -6 -12 -20 -25 -31 -28 -13 -3 -20
-13 -19 -27 1 -15 -3 -20 -15 -16 -9 4 -13 3 -9 -2 10 -11 -22 -34 -47 -34
l-20 0 20 11 c11 6 30 21 42 33 l23 22 -33 -2 c-45 -4 -44 -3 -50 -18 -4 -10
2 -13 21 -11 23 3 21 1 -10 -14 -21 -9 -38 -22 -38 -28 0 -7 -10 -14 -22 -18
-19 -5 -21 -8 -8 -16 10 -6 11 -10 3 -10 -7 0 -13 -4 -13 -10 0 -14 27 -12 33
3 4 9 6 9 6 -1 1 -8 -8 -16 -18 -19 -11 -3 -21 -13 -24 -24 -3 -10 -13 -19
-24 -19 -17 1 -17 1 0 14 20 15 22 32 5 42 -8 5 -9 2 -4 -11 5 -14 4 -16 -7
-6 -11 9 -21 4 -45 -19 -18 -17 -27 -30 -21 -30 8 0 8 -4 0 -13 -6 -8 -10 -16
-8 -18 1 -2 -1 -2 -5 1 -3 3 -8 14 -10 24 -1 11 -9 21 -16 24 -15 5 -12 -17 6
-36 16 -18 2 -37 -34 -46 -14 -4 -22 -11 -19 -16 3 -6 -1 -10 -10 -10 -12 0
-15 -6 -10 -20 4 -12 2 -20 -5 -20 -6 0 -8 5 -5 10 3 6 -2 10 -12 10 -11 0
-25 6 -32 13 -11 10 -13 9 -9 -3 4 -10 -7 -21 -31 -32 -21 -9 -29 -17 -18 -17
9 -1 17 -5 17 -11 0 -5 4 -10 10 -10 5 0 7 7 4 15 -4 8 -2 15 4 15 16 0 7 -31
-13 -42 -12 -7 -16 -7 -11 0 12 20 -10 21 -49 2 -37 -18 -37 -19 -10 -15 24 4
20 1 -17 -16 -27 -12 -48 -27 -48 -35 0 -7 -9 -16 -21 -19 -12 -4 -18 -12 -15
-21 3 -7 2 -13 -2 -12 -11 3 -72 -20 -72 -28 0 -3 7 -4 15 0 8 3 15 2 15 -3 0
-13 -45 -22 -66 -14 -13 5 -15 3 -9 -7 6 -10 4 -12 -8 -7 -9 3 -18 0 -21 -9
-3 -8 -10 -14 -16 -14 -6 0 -8 5 -5 10 3 6 1 10 -4 10 -6 0 -11 7 -11 15 0 8
-5 15 -11 15 -6 0 -9 -7 -6 -14 7 -17 -26 -31 -45 -20 -7 4 -9 3 -5 -1 4 -5
-3 -15 -15 -22 -22 -12 -21 -13 7 -6 17 5 49 7 73 6 23 -1 42 2 42 7 0 6 10 8
23 6 12 -1 21 -6 20 -9 -2 -4 -3 -13 -4 -19 0 -10 -2 -10 -6 0 -4 10 -9 8 -20
-7 -8 -12 -20 -21 -26 -20 -9 0 -9 2 1 6 19 7 14 23 -7 23 -13 0 -18 -6 -16
-18 1 -9 0 -11 -2 -4 -3 8 -11 11 -21 7 -34 -14 -84 -26 -89 -22 -2 3 9 8 26
12 17 4 34 11 37 17 9 14 -15 8 -133 -32 -61 -21 -91 -36 -86 -44 4 -7 2 -7
-7 1 -11 10 -11 15 0 28 12 14 10 15 -13 6 -15 -6 -35 -8 -44 -5 -15 5 -16 4
-3 -5 12 -9 11 -11 -7 -11 -13 0 -23 5 -23 11 0 5 -5 7 -11 3 -20 -12 19 -26
54 -19 40 9 25 -9 -15 -19 -18 -4 -28 -2 -28 5 0 7 -9 9 -21 6 -15 -4 -19 -2
-15 8 3 9 0 12 -10 8 -8 -3 -13 -12 -10 -19 3 -8 1 -14 -3 -14 -5 0 -18 -3
-28 -6 -16 -6 -16 -5 2 9 21 17 17 21 -9 11 -9 -3 -16 -18 -16 -33 0 -17 -3
-22 -9 -13 -11 18 -64 5 -57 -14 3 -8 -1 -14 -8 -14 -9 0 -12 7 -9 20 3 11 14
20 24 20 10 0 20 4 24 9 3 6 -6 6 -24 1 -40 -11 -52 -20 -46 -31 4 -5 0 -9 -7
-9 -10 0 -10 -2 1 -9 8 -5 9 -11 3 -15 -6 -3 -13 -2 -17 4 -9 15 -25 12 -19
-4 3 -7 -2 -16 -12 -20 -12 -4 -15 -2 -10 9 3 9 0 15 -9 15 -19 0 -28 -17 -13
-24 7 -3 -3 -3 -22 0 -28 4 -32 3 -20 -6 13 -10 12 -11 -3 -6 -42 14 -72 18
-58 8 11 -8 9 -11 -8 -17 -13 -4 -28 -1 -36 5 -12 10 -15 9 -15 -4 0 -12 -6
-15 -24 -10 -14 3 -33 1 -43 -5 -14 -9 -11 -10 17 -6 33 5 34 5 10 -6 -14 -7
-28 -12 -31 -11 -4 1 -6 -6 -4 -16 1 -9 0 -11 -2 -4 -4 12 -31 9 -81 -9 -30
-11 -35 -11 -27 1 3 6 15 10 26 10 11 0 18 4 15 9 -4 5 -18 5 -35 -2 -17 -6
-28 -14 -25 -18 2 -4 -1 -11 -7 -15 -8 -4 -9 -3 -5 4 5 8 0 11 -16 8 -13 -3
-29 -5 -36 -5 -7 -1 -10 -6 -6 -12 3 -6 0 -15 -7 -20 -23 -15 -34 -10 -13 6
19 15 19 15 -1 12 -11 -1 -24 -5 -30 -8 -13 -8 -70 -22 -71 -17 0 2 -8 -3 -18
-11 -14 -12 -19 -11 -36 4 -11 10 -17 22 -14 27 3 4 2 8 -3 7 -4 -1 -10 0 -13
1 -21 8 -90 5 -90 -4 0 -6 -4 -5 -9 3 -6 8 -16 11 -31 6 -15 -5 -20 -4 -16 4
5 7 1 9 -8 5 -9 -3 -14 -10 -11 -14 3 -5 -1 -10 -7 -13 -7 -2 14 -4 47 -3 33
1 66 5 72 9 6 4 14 3 17 -2 4 -5 0 -12 -6 -14 -7 -3 2 -3 20 0 17 3 32 1 32
-4 0 -5 -6 -10 -12 -11 -7 0 -23 -4 -35 -7 -15 -5 -23 -3 -23 4 0 12 -39 9
-62 -5 -8 -5 -7 -1 2 11 14 17 13 17 -10 10 -14 -4 -27 -12 -29 -17 -1 -5 -9
-1 -16 9 -13 17 -14 17 -30 -2 -9 -11 -13 -14 -9 -6 4 9 2 12 -7 9 -8 -3 -13
-11 -11 -18 3 -11 0 -11 -12 -1 -9 7 -13 18 -9 24 3 6 1 7 -5 3 -7 -4 -12 -3
-12 3 0 5 5 11 12 13 9 3 9 6 -1 12 -8 5 -14 1 -18 -13 -3 -12 -12 -21 -20
-21 -13 0 -13 3 -3 15 11 13 10 14 -6 8 -17 -6 -17 -5 -5 10 7 9 9 17 3 17 -5
0 -12 -7 -16 -15 -3 -8 -20 -22 -38 -30 -18 -8 -25 -13 -15 -10 9 2 17 1 17
-4 0 -5 -8 -11 -17 -14 -10 -3 -33 -10 -50 -15 -20 -7 -33 -7 -33 -1 0 5 10 9
22 9 12 0 19 3 15 6 -8 9 -59 -5 -53 -14 2 -4 -13 -8 -35 -8 -21 -1 -39 2 -39
7 0 5 -7 9 -15 9 -9 0 -12 6 -9 18 5 13 4 14 -4 3 -6 -8 -8 -21 -4 -30 3 -9 2
-13 -2 -9 -4 3 -27 0 -49 -8 -38 -13 -40 -12 -22 2 20 15 20 15 -2 33 -12 10
-19 21 -16 25 4 3 -8 1 -25 -5 -18 -6 -32 -18 -32 -27 0 -11 -3 -13 -8 -6 -12
18 -50 35 -56 25 -4 -5 -17 -8 -31 -6 -14 1 -25 -2 -25 -8 0 -5 -6 -4 -14 2
-10 8 -16 9 -21 1 -3 -6 -12 -7 -18 -3 -16 10 -47 11 -47 2 0 -12 -34 -3 -38
10 -2 7 4 21 14 32 16 18 16 19 1 13 -9 -3 -17 -10 -17 -16 0 -5 -3 -7 -7 -5
-5 3 -8 -5 -8 -18 0 -13 4 -20 10 -17 6 3 4 -2 -4 -11 -7 -9 -19 -17 -25 -17
-6 0 -4 5 4 10 9 6 11 10 3 10 -7 0 -10 7 -7 15 4 8 1 15 -5 15 -6 0 -11 -6
-11 -12 0 -7 -11 -18 -25 -25 -14 -6 -25 -7 -25 -2 0 5 -5 9 -10 9 -7 0 -7 -6
-1 -19 11 -19 5 -31 -13 -31 -6 0 -4 5 4 11 11 8 5 9 -25 5 -35 -5 -37 -4 -15
5 14 6 20 13 13 16 -7 2 -21 0 -32 -6 -26 -14 -31 -14 -31 4 0 18 -29 9 -48
-14 -12 -15 -15 -14 -30 5 -13 15 -23 19 -37 13 -11 -4 -27 -8 -35 -8 -13 -1
-13 0 0 10 21 14 -48 0 -72 -15 -14 -8 -21 -8 -27 3 -8 12 -14 12 -41 1 -33
-14 -49 -5 -50 29 0 7 -6 11 -14 8 -7 -3 -19 0 -25 6 -9 9 -14 9 -20 -2 -5 -7
-14 -11 -20 -7 -6 4 -27 3 -46 -3 -24 -6 -35 -6 -35 1 0 6 -3 8 -6 5 -4 -3
-15 -2 -25 4 -15 8 -17 6 -12 -7 4 -11 2 -15 -4 -11 -6 4 -14 -3 -18 -16 -4
-13 -8 -17 -12 -9 -2 6 -9 10 -14 6 -5 -3 -9 -1 -9 4 0 10 -31 12 -45 3 -5 -4
-26 -8 -45 -9 -29 -1 -32 0 -15 8 15 8 11 9 -18 4 -23 -3 -37 -1 -33 4 3 5 -5
7 -18 5 -13 -3 -40 0 -60 6 -34 9 -37 8 -32 -7 6 -15 5 -15 -7 0 -8 10 -17 15
-20 11 -4 -3 -13 0 -22 7 -14 11 -39 10 -81 -7 -13 -5 -16 -3 -11 10 8 21 7
21 -43 1 -48 -19 -55 -16 -27 11 11 11 17 14 13 8 -10 -18 6 -16 30 2 10 8 15
15 9 14 -22 -3 -25 2 -15 21 10 18 8 18 -24 -3 -18 -12 -32 -25 -30 -29 3 -4
1 -9 -4 -12 -4 -2 -9 4 -9 15 -1 10 2 19 7 19 4 0 6 9 3 20 -4 16 -8 18 -19 9
-8 -6 -11 -16 -8 -21 4 -7 -7 -9 -30 -6 -20 2 -36 2 -36 -2 0 -3 -12 -5 -27
-6 -16 0 -37 -4 -48 -8 l-20 -8 20 17 c19 16 18 16 -20 10 -29 -5 -36 -4 -25
4 10 7 -3 9 -48 7 -34 -1 -62 1 -62 5 0 9 -27 6 -36 -4 -4 -4 -3 -7 3 -7 6 0
13 -7 17 -15 4 -12 2 -13 -14 -2 -11 6 -20 15 -20 19 0 5 -8 8 -17 8 -12 1 -9
6 12 17 17 10 34 16 38 15 5 -1 6 2 2 8 -5 8 -11 8 -20 0 -7 -6 -25 -13 -39
-16 -20 -3 -24 -1 -20 11 5 11 10 13 19 5 9 -7 16 -6 26 6 12 15 11 16 -9 10
-12 -4 -22 -3 -22 2 0 5 -10 12 -22 15 -21 5 -21 5 -6 -7 10 -7 15 -16 11 -19
-12 -12 -22 -7 -28 13 -3 11 -11 20 -16 20 -6 0 -7 -5 -3 -11 8 -13 -15 -30
-29 -22 -5 3 -3 9 4 14 11 7 9 9 -6 10 -11 1 -24 1 -29 0 -5 -1 -6 5 -2 14 4
13 2 14 -14 5 -11 -6 -19 -7 -18 -3 4 12 -14 12 -39 0 -12 -5 -20 -14 -17 -18
3 -5 1 -9 -4 -9 -6 0 -13 7 -16 15 -4 11 3 17 23 21 21 4 29 12 28 24 -1 10
-4 18 -8 17 -4 -1 -14 7 -22 17 -14 19 -14 19 -14 -7 0 -21 4 -27 20 -27 11 0
18 -2 15 -5 -3 -3 -24 -3 -47 1 -29 5 -38 10 -29 15 9 6 6 9 -10 9 -13 0 -20
4 -17 10 3 6 -1 7 -9 4 -11 -4 -16 0 -16 11 0 9 -5 13 -10 10 -6 -4 -8 -11 -5
-16 4 -5 1 -9 -4 -9 -6 0 -11 -8 -12 -17 0 -11 -3 -13 -6 -5 -2 6 -11 12 -18
12 -20 0 -30 21 -14 31 11 7 11 9 -2 9 -8 0 -25 9 -38 21 -12 11 -28 18 -36
15 -7 -2 -16 -1 -19 5 -2 5 -4 5 -3 -2 2 -6 6 -10 10 -10 4 1 21 -6 37 -14
l30 -16 -26 -24 c-29 -27 -44 -32 -44 -14 0 5 5 7 10 4 5 -3 10 -1 10 4 0 6
-4 11 -10 11 -5 0 -10 5 -10 11 0 5 6 7 13 3 6 -4 9 -3 4 1 -4 5 -25 9 -47 10
-22 1 -43 5 -47 8 -3 4 -11 3 -17 -3 -7 -5 -17 -5 -26 2 -12 8 -12 9 3 4 21
-7 23 21 5 71 -9 24 -17 32 -28 27 -34 -14 -50 -16 -50 -5 0 6 -9 11 -19 11
-11 0 -23 5 -26 10 -10 16 5 50 21 50 8 0 14 5 14 10 0 19 -32 10 -37 -10 -3
-11 -9 -20 -13 -20 -5 0 -16 -7 -24 -16 -12 -11 -20 -13 -33 -5 -10 6 -12 11
-5 11 6 0 12 8 12 18 0 14 2 15 10 2 12 -19 22 -8 14 14 -4 11 -12 15 -23 10
-41 -16 -51 -17 -45 0 5 12 2 15 -12 9 -12 -4 -15 -3 -10 5 9 16 33 15 39 0 3
-7 6 -2 6 11 1 18 -3 22 -16 16 -39 -16 -53 -16 -67 -2 -8 8 -12 17 -9 21 4 3
-2 6 -13 6 -12 0 -15 3 -8 8 9 5 8 11 -2 20 -8 7 -14 8 -14 2 0 -5 -7 -10 -16
-10 -13 0 -14 -3 -5 -14 10 -12 9 -13 -8 -9 -11 3 -17 11 -14 19 3 8 -5 16
-21 20 -29 7 -34 19 -12 27 9 4 12 14 9 26 -3 12 -1 21 4 21 5 0 18 7 29 16
18 14 18 15 -3 4 -16 -8 -23 -8 -23 0 0 7 -5 6 -14 -2 -8 -7 -12 -17 -9 -21 3
-5 -4 -4 -14 2 -11 6 -24 7 -29 3 -5 -4 -2 1 5 11 13 17 12 18 -10 21 -17 2
-30 44 -17 52 7 4 8 3 4 -4 -10 -17 3 -15 21 3 22 22 12 27 -26 12 -22 -8 -34
-9 -39 -1 -4 6 -17 13 -29 16 -20 5 -21 3 -13 -12 15 -29 12 -32 -10 -10 -22
22 -50 26 -67 9 -6 -6 -17 -9 -24 -7 -7 2 4 13 26 24 33 17 50 36 28 33 -5 -1
-7 -5 -5 -10 1 -5 -2 -9 -8 -9 -5 0 -10 5 -10 11 0 6 -7 9 -15 6 -8 -4 -17 -1
-21 5 -4 7 -3 8 4 4 7 -4 12 -2 12 3 0 6 -6 11 -14 11 -8 0 -18 10 -21 21 -7
20 -8 20 -26 -7 -10 -16 -19 -23 -19 -16 0 7 -4 11 -8 8 -5 -3 -9 1 -9 9 0 8
3 14 6 13 19 -2 28 4 28 17 0 10 -6 14 -14 10 -8 -3 -19 -5 -24 -5 -5 0 -9 -5
-9 -10 0 -6 -9 -20 -19 -32 l-20 -21 2 21 c0 11 6 20 11 19 6 -1 10 3 11 10 0
6 3 15 8 19 4 4 7 15 7 25 0 16 -4 17 -30 8 -16 -6 -28 -14 -25 -18 2 -4 -2
-8 -9 -8 -18 0 -10 24 18 56 l21 24 -25 -7 c-43 -13 -70 -15 -64 -5 3 5 10 7
15 4 5 -4 9 -1 9 4 0 6 10 11 23 12 15 0 17 2 7 6 -8 3 -18 10 -21 16 -4 5
-15 5 -28 -3 -12 -6 -27 -9 -34 -7 -7 2 4 11 23 20 34 16 34 16 5 10 -29 -5
-29 -5 -10 11 20 17 20 17 -5 13 -14 -2 -34 -8 -45 -11 -11 -4 -8 0 8 9 15 8
27 18 27 21 0 3 -4 3 -10 -1 -5 -3 -8 9 -6 28 4 37 -2 40 -62 31 -18 -3 -30
-9 -27 -15 4 -5 -3 -9 -15 -9 -17 0 -20 4 -15 21 5 16 4 19 -5 14 -9 -5 -11
-4 -6 3 4 7 1 12 -8 12 -9 0 -16 5 -16 10 0 6 3 9 8 9 21 -4 31 3 29 19 -1 13
-9 18 -28 18 -16 0 -26 -4 -23 -8 7 -11 -14 -38 -29 -38 -7 0 -7 4 1 12 14 14
16 42 2 33 -5 -3 -10 -1 -10 5 0 6 11 8 24 6 13 -2 27 -2 30 1 8 9 -21 33 -41
33 -13 0 -14 3 -5 8 10 7 8 13 -6 30 -11 12 -23 22 -26 22 -12 0 -35 27 -29
34 4 3 -2 6 -13 7 -18 0 -18 1 1 8 22 9 67 -7 59 -20 -3 -5 2 -6 10 -3 18 7
11 24 -10 24 -8 0 -14 5 -14 11 0 5 -4 8 -9 5 -5 -3 -12 4 -16 17 -7 21 -7 21
-13 2 -4 -11 -18 -22 -32 -23 -14 -2 -22 -1 -18 4 5 4 -1 14 -13 22 -15 10
-24 11 -32 3 -6 -6 -16 -11 -22 -11 -5 0 -3 6 6 13 9 7 16 20 16 30 0 20 -30
15 -59 -11 -11 -9 -18 -10 -18 -4 0 6 9 18 21 26 12 8 18 19 14 25 -13 21 25
11 49 -14 14 -14 35 -25 48 -24 13 0 17 3 11 6 -7 2 -14 3 -15 1 -2 -2 -11 4
-19 12 -14 13 -14 16 4 30 18 15 16 16 -32 14 -28 -1 -51 3 -51 8 0 5 -10 6
-21 3 -14 -5 -19 -3 -15 3 8 13 -3 42 -16 42 -6 0 -8 -6 -5 -13 3 -8 -1 -14
-8 -14 -7 0 -11 6 -8 14 6 16 -9 17 -26 1 -11 -10 -13 -10 -7 0 5 7 1 12 -10
12 -14 0 -14 2 -3 16 8 10 15 12 17 5 2 -6 12 -11 23 -11 12 0 16 5 13 15 -4
8 -12 15 -19 15 -8 0 -17 5 -21 12 -4 7 -3 8 4 4 7 -4 12 -3 12 3 0 5 3 16 6
25 4 11 1 16 -11 16 -12 0 -15 -5 -11 -16 5 -12 2 -15 -10 -10 -8 3 -25 1 -37
-5 l-22 -12 20 22 c16 19 17 24 5 31 -8 5 -18 6 -22 4 -4 -3 -8 2 -8 10 0 9 5
16 11 16 6 0 9 10 7 23 -2 15 -9 21 -22 19 -15 -3 -18 1 -13 18 4 17 2 20 -10
16 -14 -6 -14 -4 -2 11 12 15 12 16 -3 10 -12 -4 -18 0 -20 16 -2 14 -10 21
-21 21 -21 -2 -21 3 -2 22 8 9 20 12 26 8 8 -4 7 -9 -2 -15 -10 -6 -8 -9 9 -9
29 0 27 10 -9 38 -18 15 -27 18 -23 9 8 -21 -7 -26 -34 -12 -19 10 -20 14 -8
18 9 4 16 15 16 26 0 14 5 19 15 15 8 -4 15 -2 15 4 0 12 -64 4 -68 -9 -2 -5
-8 -9 -13 -9 -5 0 -4 9 3 20 7 10 9 23 5 27 -5 4 -12 2 -16 -6 -6 -10 -10 -9
-14 4 -4 9 -3 14 2 11 5 -3 14 1 21 9 11 13 10 14 -3 9 -11 -4 -16 1 -19 18
-2 15 -9 23 -20 22 -16 -2 -16 1 2 23 26 33 25 45 -2 41 -18 -2 -24 3 -26 21
-2 13 -12 26 -23 28 -10 3 -21 14 -24 24 -4 10 -11 19 -16 19 -12 0 -12 -13 1
-28 7 -9 7 -9 -2 -2 -20 17 -41 12 -34 -7 13 -33 -7 -3 -26 39 -19 42 -19 42
0 23 11 -11 18 -23 15 -27 -2 -5 3 -8 11 -8 9 0 16 8 16 19 0 24 16 36 23 19
4 -10 7 -11 18 -1 9 9 9 13 1 13 -6 0 -9 7 -6 15 8 19 -13 19 -32 0 -19 -19
-38 -19 -31 -1 3 8 -1 17 -9 20 -8 3 -14 11 -14 17 0 8 4 8 15 -1 8 -7 15 -9
15 -4 0 5 5 2 10 -6 8 -12 10 -11 10 7 0 12 -5 25 -10 28 -6 4 -10 3 -9 -2 3
-20 -2 -25 -16 -13 -8 7 -12 16 -9 21 3 5 -2 6 -10 3 -9 -3 -16 -1 -16 5 0 6
-5 11 -11 11 -6 0 -8 -10 -5 -22 3 -13 -6 1 -20 31 -14 30 -21 57 -16 60 5 3
8 14 6 23 -3 23 16 35 27 17 7 -11 9 -11 9 -1 0 7 -7 15 -15 18 -8 4 -12 10
-9 15 3 5 -2 6 -10 3 -9 -3 -16 -1 -16 5 0 6 6 11 13 12 6 0 1 4 -11 10 -13 5
-28 7 -32 4 -20 -12 -168 464 -157 506 3 11 2 17 -3 14 -9 -6 -13 9 -40 142
-22 107 -24 127 -11 118 17 -10 20 10 4 30 -13 16 -15 17 -10 3 4 -10 2 -18
-3 -18 -6 0 -10 6 -10 14 0 7 -3 34 -6 60 -4 26 -3 46 2 45 22 -4 34 2 34 16
0 8 -7 15 -15 15 -13 0 -20 24 -16 52 0 4 -5 5 -13 2 -10 -4 -15 7 -18 41 -2
37 -1 42 8 30 8 -11 14 -12 19 -6 3 6 1 11 -5 11 -7 0 -9 7 -6 16 4 11 2 15
-8 11 -18 -7 -25 65 -33 391 -4 179 -3 262 4 262 6 0 14 7 17 16 3 8 2 12 -4
9 -6 -3 -10 -1 -10 4 0 6 5 11 10 11 6 0 10 5 10 11 0 5 -5 7 -12 3 -8 -5 -9
23 -4 112 4 65 11 120 15 122 4 1 6 13 4 26 -13 65 66 472 143 743 153 538
386 1010 722 1463 436 586 1030 1078 1672 1383 549 260 1082 397 1720 440 112
8 438 6 565 -3z m-4794 -5160 c5 0 9 -4 9 -10 0 -5 -7 -7 -15 -4 -9 4 -14 17
-14 33 2 23 2 24 6 4 2 -13 9 -23 14 -23z m267 -984 c7 1 8 0 2 -3 -5 -2 -10
-14 -10 -26 -1 -17 -4 -15 -15 12 -18 40 -19 64 -2 35 7 -12 18 -20 25 -18z
m60 -207 c-3 -8 -7 -3 -11 10 -4 17 -3 21 5 13 5 -5 8 -16 6 -23z m120 -249
c-2 -7 -10 1 -17 16 -12 27 -11 28 4 12 10 -9 16 -21 13 -28z m40 -76 c-4 -3
-12 5 -18 18 -12 22 -12 22 6 6 10 -10 15 -20 12 -24z m42 -74 c6 -11 8 -20 6
-20 -3 0 -10 9 -16 20 -6 11 -8 20 -6 20 3 0 10 -9 16 -20z m115 -100 c3 -5 1
-10 -4 -10 -6 0 -11 5 -11 10 0 6 2 10 4 10 3 0 8 -4 11 -10z m45 -30 c0 -5
-4 -10 -10 -10 -5 0 -10 5 -10 10 0 6 5 10 10 10 6 0 10 -4 10 -10z m7610 -29
c0 -12 -20 -25 -27 -18 -7 7 6 27 18 27 5 0 9 -4 9 -9z m-7650 -42 c15 -28 5
-23 -15 7 -9 15 -12 23 -6 20 6 -4 16 -16 21 -27z m7605 -29 c3 -5 1 -10 -4
-10 -6 0 -11 5 -11 10 0 6 2 10 4 10 3 0 8 -4 11 -10z m-25 -24 c0 -2 -9 -2
-20 1 -11 3 -20 9 -20 15 0 5 9 4 20 -2 11 -6 20 -12 20 -14z m34 -31 c-4 -8
-8 -15 -10 -15 -2 0 -4 7 -4 15 0 8 4 15 10 15 5 0 7 -7 4 -15z m-7454 -49 c0
-2 -7 -7 -16 -10 -8 -3 -12 -2 -9 4 6 10 25 14 25 6z m30 -44 c0 -5 -7 -9 -15
-9 -8 0 -12 4 -9 9 3 4 9 8 15 8 5 0 9 -4 9 -8z m-35 -52 l20 -25 -22 19 c-13
11 -23 24 -23 29 0 6 1 8 3 6 1 -2 11 -15 22 -29z m7271 -65 c15 -14 23 -25
17 -25 -5 0 -19 9 -30 19 -12 11 -24 17 -29 13 -4 -4 -4 -1 0 6 10 16 11 16
42 -13z m-7129 9 c-3 -3 -12 -4 -19 -1 -8 3 -5 6 6 6 11 1 17 -2 13 -5z m-71
-32 c-4 -3 -14 2 -24 12 -16 18 -16 18 6 6 13 -6 21 -14 18 -18z m121 -1 c-1
-15 -4 -17 -14 -9 -7 5 -10 14 -7 19 10 16 23 9 21 -10z m7039 -28 c-10 -10
-19 5 -10 18 6 11 8 11 12 0 2 -7 1 -15 -2 -18z m-46 -11 c0 -11 -8 -18 -20
-18 -23 0 -26 11 -7 30 15 17 27 11 27 -12z m43 -27 c-3 -9 -8 -14 -10 -11 -3
3 -2 9 2 15 9 16 15 13 8 -4z m-7017 -14 c0 -15 -3 -17 -13 -9 -7 6 -10 14 -7
19 9 15 20 10 20 -10z m6910 -17 c-9 -6 -16 -16 -16 -23 0 -6 -10 -11 -22 -10
l-23 0 23 16 c12 8 22 24 22 35 0 18 2 19 16 7 14 -12 14 -14 0 -25z m74 16
c0 -5 -2 -10 -4 -10 -3 0 -8 5 -11 10 -3 6 -1 10 4 10 6 0 11 -4 11 -10z
m-6950 -50 c0 -5 -5 -10 -11 -10 -5 0 -7 5 -4 10 3 6 8 10 11 10 2 0 4 -4 4
-10z m6875 -17 c-2 -10 -4 -21 -4 -25 -1 -5 -6 -8 -12 -8 -6 0 -7 5 -2 13 4 6
8 15 9 20 3 14 4 17 8 17 2 0 3 -8 1 -17z m53 5 c-2 -6 -10 -14 -16 -16 -7 -2
-10 2 -6 12 7 18 28 22 22 4z m-108 -13 c0 -9 -9 -15 -22 -15 -21 0 -21 0 -2
15 24 18 24 18 24 0z m-6859 -22 c13 -16 12 -17 -3 -4 -10 7 -18 15 -18 17 0
8 8 3 21 -13z m114 -23 c3 -5 1 -10 -4 -10 -6 0 -11 5 -11 10 0 6 2 10 4 10 3
0 8 -4 11 -10z m6705 1 c0 -5 -9 -11 -20 -14 -11 -3 -20 -1 -20 3 0 5 8 11 18
13 9 3 18 5 20 6 1 0 2 -3 2 -8z m-6569 -16 c0 -5 -5 -11 -12 -14 -6 -2 -9 1
-5 7 3 6 0 13 -6 16 -7 3 -5 5 5 3 10 -1 18 -6 18 -12z m6649 1 c0 -2 -8 -10
-17 -17 -16 -13 -17 -12 -4 4 13 16 21 21 21 13z m-183 -28 c2 -18 0 -20 -7
-8 -5 8 -10 10 -10 5 0 -6 -9 -11 -20 -11 -26 0 -25 10 3 24 31 15 33 15 34
-10z m56 -9 c-8 -8 -13 -8 -17 0 -4 6 -2 11 4 11 6 0 8 6 4 13 -6 10 -4 10 7
0 9 -10 10 -16 2 -24z m-6553 10 c0 -11 -27 -12 -34 -1 -2 4 4 9 15 9 10 1 19
-2 19 -8z m-69 -106 c13 -16 12 -17 -3 -4 -10 7 -18 15 -18 17 0 8 8 3 21 -13z
m6509 -12 c0 -4 -9 -12 -19 -18 -16 -10 -19 -9 -16 5 4 21 2 19 20 19 8 0 15
-3 15 -6z m-160 -86 c-7 -8 -16 -12 -21 -9 -13 8 -1 24 18 24 13 0 13 -3 3
-15z m-110 -55 c0 -5 -5 -10 -11 -10 -5 0 -7 5 -4 10 3 6 8 10 11 10 2 0 4 -4
4 -10z m129 -44 c0 -7 -2 -6 -6 2 -2 6 -9 10 -14 6 -5 -3 -9 2 -9 12 0 13 3
14 15 4 8 -7 15 -18 14 -24z m-119 0 c0 -2 -7 -9 -15 -16 -13 -11 -14 -10 -9
4 5 14 24 23 24 12z m66 -11 c-8 -8 -18 -15 -22 -15 -3 0 -1 7 6 15 7 8 17 15
22 15 5 0 3 -7 -6 -15z m-5786 -35 c0 -5 -2 -10 -4 -10 -3 0 -8 5 -11 10 -3 6
-1 10 4 10 6 0 11 -4 11 -10z m-180 -10 c0 -5 -5 -10 -11 -10 -5 0 -7 5 -4 10
3 6 8 10 11 10 2 0 4 -4 4 -10z m75 0 c-3 -5 -12 -10 -18 -10 -7 0 -6 4 3 10
19 12 23 12 15 0z m123 -30 c3 -7 0 -10 -7 -6 -6 4 -11 2 -11 -4 0 -17 -17 -3
-23 19 -4 16 -1 18 16 12 12 -4 23 -14 25 -21z m5672 -5 c-7 -8 -17 -15 -22
-15 -6 0 -5 7 2 15 7 8 17 15 22 15 6 0 5 -7 -2 -15z m-180 -40 c-7 -9 -15
-13 -19 -10 -3 3 1 10 9 15 21 14 24 12 10 -5z m150 1 c0 -3 -4 -8 -10 -11 -5
-3 -10 -1 -10 4 0 6 5 11 10 11 6 0 10 -2 10 -4z m-5784 -55 c1 -6 0 -7 -3 -1
-2 5 -11 10 -18 10 -8 0 -17 4 -20 10 -4 6 2 7 16 1 13 -4 24 -13 25 -20z
m5559 -21 c3 -5 1 -10 -4 -10 -6 0 -11 5 -11 10 0 6 2 10 4 10 3 0 8 -4 11
-10z m-80 -30 c-18 -7 -19 -8 -2 -15 19 -8 24 -35 5 -35 -6 0 -9 3 -5 6 3 4
-1 13 -9 21 -17 17 -10 33 14 32 14 0 13 -2 -3 -9z m-5175 -20 c0 -5 -7 -10
-16 -10 -8 0 -12 5 -9 10 3 6 10 10 16 10 5 0 9 -4 9 -10z m5147 -42 c-3 -7
-5 -2 -5 12 0 14 2 19 5 13 2 -7 2 -19 0 -25z m-5097 1 c0 -5 -7 -9 -15 -9 -8
0 -14 -5 -12 -11 4 -18 -36 -28 -50 -13 -8 8 -9 15 -3 19 6 3 10 1 10 -4 0 -6
10 -11 23 -10 12 0 16 3 9 6 -10 4 -9 9 4 24 16 18 34 17 34 -2z m5072 -23 c7
4 8 2 4 -5 -9 -13 -26 -5 -25 12 0 9 2 8 6 -1 2 -6 10 -9 15 -6z m-35 -28 c-3
-7 -5 -2 -5 12 0 14 2 19 5 13 2 -7 2 -19 0 -25z m73 -33 c-7 -9 -15 -13 -17
-11 -7 7 7 26 19 26 6 0 6 -6 -2 -15z m-4843 -24 c10 -15 9 -20 -2 -25 -17 -6
-48 21 -40 35 10 15 29 10 42 -10z m-67 -6 c-7 -9 -15 -13 -19 -10 -3 3 1 10
9 15 21 14 24 12 10 -5z m4485 -75 c3 -5 1 -10 -4 -10 -6 0 -11 5 -11 10 0 6
2 10 4 10 3 0 8 -4 11 -10z m387 -12 c-6 -6 -15 -8 -19 -4 -4 4 -1 11 7 16 19
12 27 3 12 -12z m-4704 -14 c2 -15 1 -16 -6 -5 -6 8 -17 11 -26 8 -9 -4 -16
-2 -16 2 0 11 21 20 35 17 6 -2 11 -11 13 -22z m4217 16 c-3 -5 -14 -10 -23
-9 -14 0 -13 2 3 9 27 11 27 11 20 0z m75 -23 c11 -5 9 -6 -4 -4 -11 1 -21 9
-23 17 -3 10 -2 11 4 4 4 -6 15 -14 23 -17z m365 -7 c-3 -5 -12 -10 -18 -10
-7 0 -6 4 3 10 19 12 23 12 15 0z m-4475 -10 c0 -5 -4 -10 -10 -10 -5 0 -10 5
-10 10 0 6 5 10 10 10 6 0 10 -4 10 -10z m3827 -6 c-3 -3 -12 -4 -19 -1 -8 3
-5 6 6 6 11 1 17 -2 13 -5z m-4087 -18 c0 -3 -4 -8 -10 -11 -5 -3 -10 -1 -10
4 0 6 5 11 10 11 6 0 10 -2 10 -4z m75 -6 c-3 -5 -12 -10 -18 -10 -7 0 -6 4 3
10 19 12 23 12 15 0z m115 -8 c0 -13 -2 -14 -8 -4 -7 10 -15 10 -36 2 -15 -5
-25 -6 -22 -1 4 5 1 11 -5 13 -6 2 7 4 30 5 33 2 41 -2 41 -15z m30 -3 c0 -5
-4 -9 -8 -9 -5 0 -9 7 -9 15 0 8 4 12 9 9 4 -3 8 -9 8 -15z m64 8 c16 -12 16
-13 -3 -14 -10 -1 -22 5 -25 13 -7 17 5 18 28 1z m136 -47 c0 -5 -5 -10 -11
-10 -5 0 -7 5 -4 10 3 6 8 10 11 10 2 0 4 -4 4 -10z m120 -40 c0 -5 -10 -10
-22 -9 -22 0 -22 1 -3 9 11 5 21 9 23 9 1 1 2 -3 2 -9z m3190 -5 c-27 -14 -36
-13 -25 4 3 6 16 11 28 11 21 -1 21 -1 -3 -15z m-3005 -63 c-3 -3 -11 0 -18 7
-9 10 -8 11 6 5 10 -3 15 -9 12 -12z m150 -2 c-3 -5 -12 -10 -18 -10 -7 0 -6
4 3 10 19 12 23 12 15 0z m74 -7 c-6 -7 -15 -10 -20 -7 -13 8 -3 21 15 21 12
0 13 -4 5 -14z m-276 -8 c-3 -9 -8 -14 -10 -11 -3 3 -2 9 2 15 9 16 15 13 8
-4z m107 5 c0 -5 -5 -10 -11 -10 -5 0 -7 5 -4 10 3 6 8 10 11 10 2 0 4 -4 4
-10z m2657 -12 c-3 -8 -6 -5 -6 6 -1 11 2 17 5 13 3 -3 4 -12 1 -19z m-467
-16 c0 -15 -2 -15 -10 -2 -13 20 -13 33 0 25 6 -3 10 -14 10 -23z m57 2 c-9
-9 -28 6 -21 18 4 6 10 6 17 -1 6 -6 8 -13 4 -17z m-441 7 c8 6 14 7 14 2 0
-16 -23 -33 -44 -32 -17 1 -17 2 -4 6 9 2 16 10 14 16 -1 7 -1 8 2 4 2 -4 10
-3 18 4z m-891 -11 c-3 -5 -12 -7 -20 -3 -21 7 -19 13 6 13 11 0 18 -4 14 -10z
m675 6 c0 -11 -19 -15 -25 -6 -3 5 1 10 9 10 9 0 16 -2 16 -4z m76 -9 c4 -4
-8 -7 -27 -7 -23 0 -30 3 -20 9 15 10 37 9 47 -2z m34 2 c0 -8 4 -8 15 1 8 6
20 10 27 8 8 -3 4 -9 -11 -17 -20 -11 -26 -10 -39 3 -11 10 -12 16 -4 16 7 0
12 -5 12 -11z m434 -4 c-10 -7 -22 -11 -27 -8 -12 7 0 19 23 20 21 2 21 1 4
-12z m161 6 c-6 -5 -21 -11 -35 -15 -21 -5 -20 -3 5 9 35 17 42 18 30 6z
m-1615 -11 c0 -5 -5 -10 -11 -10 -5 0 -7 5 -4 10 3 6 8 10 11 10 2 0 4 -4 4
-10z m100 6 c0 -2 -7 -6 -15 -10 -8 -3 -15 -1 -15 4 0 6 7 10 15 10 8 0 15 -2
15 -4z m63 -3 c-7 -2 -19 -2 -25 0 -7 3 -2 5 12 5 14 0 19 -2 13 -5z m94 -8
c0 -8 -4 -12 -9 -9 -5 3 -6 10 -3 15 9 13 12 11 12 -6z m618 5 c3 -5 -3 -10
-15 -10 -12 0 -18 5 -15 10 3 6 10 10 15 10 5 0 12 -4 15 -10z m-590 -40 c-3
-5 -10 -10 -16 -10 -5 0 -9 5 -9 10 0 6 7 10 16 10 8 0 12 -4 9 -10z m75 0 c0
-5 -4 -10 -10 -10 -5 0 -10 5 -10 10 0 6 5 10 10 10 6 0 10 -4 10 -10z m320 0
c0 -5 -4 -10 -10 -10 -5 0 -10 5 -10 10 0 6 5 10 10 10 6 0 10 -4 10 -10z m80
0 c0 -5 -5 -10 -11 -10 -5 0 -7 5 -4 10 3 6 8 10 11 10 2 0 4 -4 4 -10z m80 0
c0 -5 -5 -10 -11 -10 -5 0 -7 5 -4 10 3 6 8 10 11 10 2 0 4 -4 4 -10z m160 0
c0 -5 -8 -10 -17 -10 -15 0 -16 2 -3 10 19 12 20 12 20 0z m80 0 c0 -5 -4 -10
-10 -10 -5 0 -10 5 -10 10 0 6 5 10 10 10 6 0 10 -4 10 -10z m-606 -79 c-4 -3
-9 0 -11 7 -3 6 -10 9 -15 6 -7 -4 -8 -2 -4 5 6 9 11 9 22 0 8 -6 12 -15 8
-18z m106 19 c0 -5 -5 -10 -11 -10 -5 0 -7 5 -4 10 3 6 8 10 11 10 2 0 4 -4 4
-10z"/>
<path d="M590 5259 c0 -5 5 -7 10 -4 6 3 10 8 10 11 0 2 -4 4 -10 4 -5 0 -10
-5 -10 -11z"/>
<path d="M593 5174 c0 -17 2 -22 7 -13 5 6 6 18 3 26 -8 19 -10 16 -10 -13z"/>
<path d="M655 4560 c-3 -5 -1 -10 4 -10 6 0 11 5 11 10 0 6 -2 10 -4 10 -3 0
-8 -4 -11 -10z"/>
<path d="M654 4419 c-8 -14 8 -30 22 -21 9 5 8 10 -2 19 -9 9 -15 10 -20 2z"/>
<path d="M728 4093 c7 -3 16 -2 19 1 4 3 -2 6 -13 5 -11 0 -14 -3 -6 -6z"/>
<path d="M735 3988 c9 -44 16 -49 39 -32 11 8 15 14 10 14 -6 0 -16 -6 -22
-12 -10 -10 -12 -8 -9 7 1 11 6 26 10 32 6 9 3 11 -9 6 -12 -4 -15 -3 -10 5 4
7 2 12 -4 12 -8 0 -9 -11 -5 -32z"/>
<path d="M750 3920 c0 -5 5 -10 11 -10 5 0 7 5 4 10 -3 6 -8 10 -11 10 -2 0
-4 -4 -4 -10z"/>
<path d="M773 3895 c-7 -21 4 -32 19 -17 9 9 9 12 -2 13 -10 0 -7 4 5 9 18 8
18 9 2 9 -10 1 -20 -6 -24 -14z"/>
<path d="M9455 3870 c-3 -5 -1 -10 4 -10 6 0 11 5 11 10 0 6 -2 10 -4 10 -3 0
-8 -4 -11 -10z"/>
<path d="M9446 3841 c-4 -7 -5 -15 -2 -18 9 -9 19 4 14 18 -4 11 -6 11 -12 0z"/>
<path d="M780 3823 c0 -15 2 -15 24 -7 22 9 20 20 -4 20 -11 0 -20 -6 -20 -13z"/>
<path d="M790 3785 c0 -8 8 -15 18 -14 10 0 12 3 4 6 -6 2 -10 9 -6 14 3 5 0
9 -5 9 -6 0 -11 -7 -11 -15z"/>
<path d="M9420 3755 c0 -8 4 -15 10 -15 5 0 7 7 4 15 -4 8 -8 15 -10 15 -2 0
-4 -7 -4 -15z"/>
<path d="M856 3605 c4 -8 8 -15 10 -15 2 0 4 7 4 15 0 8 -4 15 -10 15 -5 0 -7
-7 -4 -15z"/>
<path d="M975 3460 c3 -5 8 -10 11 -10 2 0 4 5 4 10 0 6 -5 10 -11 10 -5 0 -7
-4 -4 -10z"/>
<path d="M9286 3453 c-6 -14 -5 -15 5 -6 7 7 10 15 7 18 -3 3 -9 -2 -12 -12z"/>
<path d="M925 3423 c2 -10 4 -21 4 -25 1 -5 6 -8 12 -8 14 0 7 42 -8 47 -6 3
-10 -4 -8 -14z"/>
<path d="M979 3389 c-6 -4 1 -6 15 -6 15 0 28 2 30 6 3 4 -4 7 -15 7 -11 0
-25 -3 -30 -7z"/>
<path d="M9270 3355 c0 -8 2 -15 4 -15 2 0 6 7 10 15 3 8 1 15 -4 15 -6 0 -10
-7 -10 -15z"/>
<path d="M9141 3214 c0 -11 3 -14 6 -6 3 7 2 16 -1 19 -3 4 -6 -2 -5 -13z"/>
<path d="M9095 3170 c3 -5 8 -10 11 -10 2 0 4 5 4 10 0 6 -5 10 -11 10 -5 0
-7 -4 -4 -10z"/>
<path d="M9170 3170 c8 -5 20 -10 25 -10 6 0 3 5 -5 10 -8 5 -19 10 -25 10 -5
0 -3 -5 5 -10z"/>
<path d="M9127 3143 c-3 -5 -2 -15 2 -22 7 -10 10 -10 16 -1 4 6 3 16 -3 22
-5 5 -12 6 -15 1z"/>
<path d="M9015 3100 c-3 -5 -1 -10 4 -10 6 0 11 5 11 10 0 6 -2 10 -4 10 -3 0
-8 -4 -11 -10z"/>
<path d="M9086 3102 c-3 -5 1 -9 9 -9 8 0 15 4 15 9 0 4 -4 8 -9 8 -6 0 -12
-4 -15 -8z"/>
<path d="M9150 3099 c0 -5 5 -7 10 -4 6 3 10 8 10 11 0 2 -4 4 -10 4 -5 0 -10
-5 -10 -11z"/>
<path d="M9070 3041 c0 -6 4 -13 10 -16 6 -3 7 1 4 9 -7 18 -14 21 -14 7z"/>
<path d="M9015 3020 c-3 -5 -1 -10 4 -10 6 0 11 5 11 10 0 6 -2 10 -4 10 -3 0
-8 -4 -11 -10z"/>
<path d="M9040 2890 c0 -5 5 -10 11 -10 5 0 7 5 4 10 -3 6 -8 10 -11 10 -2 0
-4 -4 -4 -10z"/>
<path d="M1335 2860 c-3 -5 -1 -10 4 -10 6 0 11 5 11 10 0 6 -2 10 -4 10 -3 0
-8 -4 -11 -10z"/>
<path d="M8930 2860 c0 -5 5 -10 10 -10 6 0 10 5 10 10 0 6 -4 10 -10 10 -5 0
-10 -4 -10 -10z"/>
<path d="M9026 2858 c5 -8 1 -9 -12 -4 -14 5 -16 4 -7 -5 6 -6 16 -8 22 -5 14
9 14 26 0 26 -5 0 -7 -5 -3 -12z"/>
<path d="M8896 2815 c4 -8 8 -15 10 -15 2 0 4 7 4 15 0 8 -4 15 -10 15 -5 0
-7 -7 -4 -15z"/>
<path d="M8825 2761 c3 -5 0 -11 -7 -13 -7 -3 -8 -7 -3 -10 6 -3 15 0 22 7 10
10 9 14 -3 19 -8 3 -13 2 -9 -3z"/>
<path d="M1368 2738 c9 -9 15 -9 24 0 9 9 7 12 -12 12 -19 0 -21 -3 -12 -12z"/>
<path d="M8775 2700 c-3 -5 -1 -10 4 -10 6 0 11 5 11 10 0 6 -2 10 -4 10 -3 0
-8 -4 -11 -10z"/>
<path d="M1447 2664 c-8 -8 1 -24 14 -24 5 0 9 7 9 15 0 15 -12 20 -23 9z"/>
<path d="M8011 2657 c-8 -10 -7 -14 2 -14 8 0 14 6 14 14 0 7 -1 13 -2 13 -2
0 -8 -6 -14 -13z"/>
<path d="M8735 2660 c-3 -5 -1 -10 4 -10 6 0 11 5 11 10 0 6 -2 10 -4 10 -3 0
-8 -4 -11 -10z"/>
<path d="M7946 2650 c5 -8 9 -19 9 -24 0 -5 10 -11 23 -12 12 -2 22 1 22 6 0
6 -5 10 -12 10 -6 0 -20 8 -31 18 -14 12 -18 12 -11 2z"/>
<path d="M8776 2627 c-16 -12 -16 -14 -3 -14 9 0 18 6 21 14 3 7 4 13 3 13 -2
0 -11 -6 -21 -13z"/>
<path d="M1485 2621 c-7 -12 25 -45 34 -35 3 4 1 9 -6 11 -7 2 -9 11 -6 19 6
15 -12 20 -22 5z"/>
<path d="M8730 2580 c0 -5 4 -10 9 -10 6 0 13 5 16 10 3 6 -1 10 -9 10 -9 0
-16 -4 -16 -10z"/>
<path d="M8630 2569 c0 -5 5 -7 10 -4 6 3 10 8 10 11 0 2 -4 4 -10 4 -5 0 -10
-5 -10 -11z"/>
<path d="M2356 2541 c-10 -11 -13 -22 -8 -25 5 -3 17 3 26 13 10 11 13 22 8
25 -5 3 -17 -3 -26 -13z"/>
<path d="M8685 2550 c-3 -5 0 -12 6 -16 8 -4 7 -9 -2 -15 -10 -6 -10 -9 -2 -9
7 0 17 9 22 19 8 14 7 20 -4 25 -8 3 -17 1 -20 -4z"/>
<path d="M8650 2500 c0 -5 5 -10 10 -10 6 0 10 5 10 10 0 6 -4 10 -10 10 -5 0
-10 -4 -10 -10z"/>
<path d="M8581 2484 c0 -11 3 -14 6 -6 3 7 2 16 -1 19 -3 4 -6 -2 -5 -13z"/>
<path d="M1595 2470 c-3 -5 1 -10 10 -10 9 0 13 5 10 10 -3 6 -8 10 -10 10 -2
0 -7 -4 -10 -10z"/>
<path d="M8620 2460 c0 -7 -7 -10 -15 -7 -20 8 -28 -8 -10 -23 12 -10 16 -9
21 4 4 12 13 15 28 10 11 -4 19 -5 16 -2 -33 27 -40 30 -40 18z"/>
<path d="M8575 2421 c-3 -5 -1 -12 5 -16 5 -3 10 1 10 9 0 18 -6 21 -15 7z"/>
<path d="M1726 2382 c-3 -5 1 -9 9 -9 8 0 12 4 9 9 -3 4 -7 8 -9 8 -2 0 -6 -4
-9 -8z"/>
<path d="M8534 2365 c1 -33 16 -33 16 0 0 14 -4 25 -9 25 -5 0 -8 -11 -7 -25z"/>
<path d="M8495 2341 c-3 -5 -1 -12 5 -16 5 -3 10 1 10 9 0 18 -6 21 -15 7z"/>
<path d="M1768 2333 c7 -3 16 -2 19 1 4 3 -2 6 -13 5 -11 0 -14 -3 -6 -6z"/>
<path d="M1806 2298 c3 -4 9 -8 15 -8 5 0 9 4 9 8 0 5 -7 9 -15 9 -8 0 -12 -4
-9 -9z"/>
<path d="M8455 2301 c-3 -5 -1 -12 4 -15 5 -3 11 1 15 9 6 16 -9 21 -19 6z"/>
<path d="M8335 2260 c-3 -5 -1 -10 4 -10 6 0 11 5 11 10 0 6 -2 10 -4 10 -3 0
-8 -4 -11 -10z"/>
<path d="M8414 2254 c3 -9 6 -20 6 -25 0 -6 4 -8 9 -5 12 8 2 46 -11 46 -6 0
-7 -7 -4 -16z"/>
<path d="M1797 2223 c-11 -10 13 -33 34 -33 11 0 19 5 19 11 0 5 -4 7 -10 4
-5 -3 -10 1 -10 9 0 16 -21 22 -33 9z"/>
<path d="M8363 2219 c-6 -6 -9 -17 -6 -25 7 -18 33 -5 33 17 0 21 -11 24 -27
8z"/>
<path d="M3025 2210 c-3 -5 -1 -10 4 -10 6 0 11 5 11 10 0 6 -2 10 -4 10 -3 0
-8 -4 -11 -10z"/>
<path d="M1930 2182 c0 -11 4 -23 9 -27 6 -3 8 4 6 16 -6 30 -15 37 -15 11z"/>
<path d="M2985 2151 c-3 -5 -2 -12 3 -15 5 -3 9 1 9 9 0 17 -3 19 -12 6z"/>
<path d="M2955 2099 c-11 -16 -1 -19 13 -3 7 8 8 14 3 14 -5 0 -13 -5 -16 -11z"/>
<path d="M2015 2090 c3 -5 8 -10 11 -10 2 0 4 5 4 10 0 6 -5 10 -11 10 -5 0
-7 -4 -4 -10z"/>
<path d="M8215 2060 c-8 -13 5 -13 25 0 13 8 13 10 -2 10 -9 0 -20 -4 -23 -10z"/>
<path d="M2920 2032 c0 -12 3 -12 15 -2 8 7 15 13 15 15 0 1 -7 2 -15 2 -8 0
-15 -7 -15 -15z"/>
<path d="M3026 2023 c-6 -14 -5 -15 5 -6 7 7 10 15 7 18 -3 3 -9 -2 -12 -12z"/>
<path d="M2095 2020 c-3 -5 -1 -10 4 -10 6 0 11 5 11 10 0 6 -2 10 -4 10 -3 0
-8 -4 -11 -10z"/>
<path d="M2166 2022 c-3 -5 1 -9 9 -9 8 0 12 4 9 9 -3 4 -7 8 -9 8 -2 0 -6 -4
-9 -8z"/>
<path d="M8090 2020 c0 -5 5 -10 10 -10 6 0 10 5 10 10 0 6 -4 10 -10 10 -5 0
-10 -4 -10 -10z"/>
<path d="M2025 2000 c-3 -5 -2 -10 4 -10 5 0 13 5 16 10 3 6 2 10 -4 10 -5 0
-13 -4 -16 -10z"/>
<path d="M8050 1980 c0 -5 5 -10 10 -10 6 0 10 5 10 10 0 6 -4 10 -10 10 -5 0
-10 -4 -10 -10z"/>
<path d="M2165 1940 c-3 -5 1 -10 9 -10 9 0 16 5 16 10 0 6 -4 10 -9 10 -6 0
-13 -4 -16 -10z"/>
<path d="M8015 1940 c-3 -5 -1 -10 4 -10 6 0 11 5 11 10 0 6 -2 10 -4 10 -3 0
-8 -4 -11 -10z"/>
<path d="M2210 1900 c-13 -8 -12 -10 3 -10 9 0 17 5 17 10 0 12 -1 12 -20 0z"/>
<path d="M2255 1890 c-16 -7 -17 -9 -3 -9 9 -1 20 4 23 9 7 11 7 11 -20 0z"/>
<path d="M2250 1860 c0 -5 4 -10 9 -10 6 0 13 5 16 10 3 6 -1 10 -9 10 -9 0
-16 -4 -16 -10z"/>
<path d="M7115 1860 c3 -5 8 -10 11 -10 2 0 4 5 4 10 0 6 -5 10 -11 10 -5 0
-7 -4 -4 -10z"/>
<path d="M7890 1823 c0 -5 5 -15 10 -23 8 -12 10 -11 10 8 0 12 -4 22 -10 22
-5 0 -10 -3 -10 -7z"/>
<path d="M7844 1778 c-10 -12 -13 -18 -6 -14 6 4 12 2 12 -3 0 -22 18 -10 22
14 6 31 -3 32 -28 3z"/>
<path d="M2400 1775 c-11 -13 -10 -14 4 -9 9 3 16 10 16 15 0 13 -6 11 -20 -6z"/>
<path d="M7733 1745 c0 -8 4 -15 9 -15 4 0 8 4 8 9 0 6 -4 12 -8 15 -5 3 -9
-1 -9 -9z"/>
<path d="M7650 1740 c0 -5 5 -10 11 -10 5 0 7 5 4 10 -3 6 -8 10 -11 10 -2 0
-4 -4 -4 -10z"/>
<path d="M2488 1693 c7 -3 16 -2 19 1 4 3 -2 6 -13 5 -11 0 -14 -3 -6 -6z"/>
<path d="M3580 1679 c-18 -15 -20 -19 -7 -15 10 3 22 6 26 6 4 0 8 7 8 15 0 8
-1 15 -1 15 -1 0 -12 -10 -26 -21z"/>
<path d="M6540 1675 c0 -8 2 -15 4 -15 2 0 6 7 10 15 3 8 1 15 -4 15 -6 0 -10
-7 -10 -15z"/>
<path d="M2450 1660 c0 -5 10 -10 23 -10 18 0 19 2 7 10 -19 13 -30 13 -30 0z"/>
<path d="M2535 1660 c-3 -5 -1 -10 4 -10 6 0 11 5 11 10 0 6 -2 10 -4 10 -3 0
-8 -4 -11 -10z"/>
<path d="M3623 1656 c-16 -22 -9 -51 12 -48 20 4 46 32 39 43 -8 13 -43 17
-51 5z"/>
<path d="M6566 1661 c-4 -5 3 -7 14 -4 23 6 26 13 6 13 -8 0 -17 -4 -20 -9z"/>
<path d="M7655 1660 c-3 -5 -1 -10 4 -10 6 0 11 5 11 10 0 6 -2 10 -4 10 -3 0
-8 -4 -11 -10z"/>
<path d="M2565 1620 c-3 -5 1 -10 9 -10 9 0 16 5 16 10 0 6 -4 10 -9 10 -6 0
-13 -4 -16 -10z"/>
<path d="M4087 1609 c-7 -28 -6 -31 10 -14 6 6 8 18 3 24 -5 9 -9 5 -13 -10z"/>
<path d="M7535 1620 c-3 -5 -1 -10 4 -10 6 0 11 5 11 10 0 6 -2 10 -4 10 -3 0
-8 -4 -11 -10z"/>
<path d="M7605 1620 c-3 -5 1 -10 9 -10 9 0 16 5 16 10 0 6 -4 10 -9 10 -6 0
-13 -4 -16 -10z"/>
<path d="M4196 1612 c-2 -4 -1 -14 3 -21 6 -9 10 -7 14 8 5 20 -7 29 -17 13z"/>
<path d="M6475 1591 c-5 -9 -2 -17 9 -23 9 -5 16 -16 16 -23 0 -17 9 -19 29
-6 11 7 10 10 -6 15 -11 4 -24 16 -30 28 -7 17 -11 19 -18 9z"/>
<path d="M7575 1571 c7 -12 -29 -33 -39 -24 -3 3 -6 1 -6 -6 0 -9 6 -11 18 -6
9 4 25 9 34 12 17 5 14 33 -4 33 -5 0 -7 -4 -3 -9z"/>
<path d="M4070 1545 c0 -8 4 -15 10 -15 5 0 7 7 4 15 -4 8 -8 15 -10 15 -2 0
-4 -7 -4 -15z"/>
<path d="M4176 1552 c-3 -5 1 -9 9 -9 8 0 15 4 15 9 0 4 -4 8 -9 8 -6 0 -12
-4 -15 -8z"/>
<path d="M2885 1540 c-3 -5 -2 -10 4 -10 5 0 13 5 16 10 3 6 2 10 -4 10 -5 0
-13 -4 -16 -10z"/>
<path d="M2835 1530 c-3 -5 -1 -10 4 -10 6 0 11 5 11 10 0 6 -2 10 -4 10 -3 0
-8 -4 -11 -10z"/>
<path d="M7513 1521 c1 -11 8 -21 15 -21 12 0 12 3 1 18 -7 9 -14 19 -16 21
-1 2 -1 -6 0 -18z"/>
<path d="M2750 1505 c0 -8 9 -15 20 -15 11 0 20 5 20 11 0 6 -7 8 -16 5 -8 -3
-12 -2 -9 4 3 6 1 10 -4 10 -6 0 -11 -7 -11 -15z"/>
<path d="M2880 1509 c0 -5 5 -7 10 -4 6 3 10 8 10 11 0 2 -4 4 -10 4 -5 0 -10
-5 -10 -11z"/>
<path d="M4061 1504 c0 -11 3 -14 6 -6 3 7 2 16 -1 19 -3 4 -6 -2 -5 -13z"/>
<path d="M4497 1490 c-3 -11 -1 -33 3 -48 7 -23 8 -21 9 21 1 50 -3 60 -12 27z"/>
<path d="M2725 1490 c-3 -5 -1 -10 4 -10 6 0 11 5 11 10 0 6 -2 10 -4 10 -3 0
-8 -4 -11 -10z"/>
<path d="M5362 1475 c0 -16 2 -22 5 -12 2 9 2 23 0 30 -3 6 -5 -1 -5 -18z"/>
<path d="M7240 1488 c0 -4 4 -8 9 -8 6 0 12 4 15 8 3 5 -1 9 -9 9 -8 0 -15 -4
-15 -9z"/>
<path d="M5826 1481 c-4 -7 -5 -15 -2 -18 9 -9 19 4 14 18 -4 11 -6 11 -12 0z"/>
<path d="M7301 1464 c0 -11 3 -14 6 -6 3 7 2 16 -1 19 -3 4 -6 -2 -5 -13z"/>
<path d="M4050 1462 c0 -12 19 -26 26 -19 2 2 -2 10 -11 17 -9 8 -15 8 -15 2z"/>
<path d="M7211 1461 c-8 -6 -9 -11 -3 -15 6 -3 14 -1 17 5 9 14 2 20 -14 10z"/>
<path d="M7147 1449 c7 -7 15 -10 18 -7 3 3 -2 9 -12 12 -14 6 -15 5 -6 -5z"/>
<path d="M5815 1442 c-6 -4 -11 -16 -13 -27 -4 -22 -32 -56 -32 -39 0 6 3 14
7 18 4 3 7 16 8 28 l2 22 -15 -22 c-14 -21 -15 -21 -29 -5 -8 10 -12 13 -9 6
4 -6 1 -13 -5 -15 -5 -2 -13 -22 -16 -46 -6 -48 -2 -50 72 -31 42 11 43 12 47
56 4 48 -2 66 -17 55z"/>
<path d="M6205 1440 c-3 -5 1 -10 9 -10 8 0 18 5 21 10 3 6 -1 10 -9 10 -8 0
-18 -4 -21 -10z"/>
<path d="M2860 1418 c0 -25 11 -49 21 -42 5 3 9 0 9 -7 0 -8 4 -9 13 0 10 8
17 7 26 -2 10 -9 11 -8 5 6 -3 10 -12 16 -19 13 -15 -5 -29 4 -43 29 -9 16
-11 17 -12 3z"/>
<path d="M7175 1420 c-3 -5 -1 -10 4 -10 6 0 11 5 11 10 0 6 -2 10 -4 10 -3 0
-8 -4 -11 -10z"/>
<path d="M7238 1418 c-9 -5 -6 -7 9 -5 12 2 25 6 28 8 8 9 -23 6 -37 -3z"/>
<path d="M7086 1408 c3 -5 10 -6 15 -3 13 9 11 12 -6 12 -8 0 -12 -4 -9 -9z"/>
<path d="M4490 1389 c7 -12 6 -19 -3 -22 -7 -3 -5 -6 6 -6 11 -1 17 6 17 22 0
14 -6 24 -14 24 -11 0 -12 -5 -6 -18z"/>
<path d="M3004 1389 c-4 -7 -3 -9 4 -5 6 3 13 2 17 -4 8 -14 42 -13 51 2 5 7
1 9 -13 6 -11 -3 -27 -1 -36 3 -10 6 -18 5 -23 -2z"/>
<path d="M4391 1394 c-1 -6 8 -21 19 -34 11 -13 20 -18 20 -12 0 6 7 9 15 6 8
-4 13 -10 10 -14 -3 -4 8 -10 23 -13 35 -7 51 16 17 25 -13 3 -39 16 -56 29
-18 13 -29 18 -25 11 4 -7 3 -12 -3 -12 -5 0 -12 6 -14 13 -3 7 -6 7 -6 1z"/>
<path d="M3125 1380 c3 -5 11 -10 16 -10 6 0 7 5 4 10 -3 6 -11 10 -16 10 -6
0 -7 -4 -4 -10z"/>
<path d="M6968 1373 c7 -3 16 -2 19 1 4 3 -2 6 -13 5 -11 0 -14 -3 -6 -6z"/>
<path d="M3055 1330 c-16 -7 -17 -9 -3 -9 9 -1 20 4 23 9 7 11 7 11 -20 0z"/>
<path d="M5063 1323 c4 -3 5 -9 1 -14 -3 -5 14 -9 38 -8 40 1 41 2 13 9 -16 4
-37 10 -45 12 -8 3 -12 3 -7 1z"/>
<path d="M6777 1314 c-10 -11 17 -31 35 -26 23 6 23 21 1 18 -10 -2 -21 1 -24
6 -3 4 -8 6 -12 2z"/>
<path d="M4375 1301 c11 -4 36 -11 55 -15 24 -4 29 -3 15 3 -11 4 -36 11 -55
15 -24 4 -29 3 -15 -3z"/>
<path d="M5460 1299 c0 -5 5 -7 10 -4 6 3 10 8 10 11 0 2 -4 4 -10 4 -5 0 -10
-5 -10 -11z"/>
<path d="M3290 1296 c0 -2 7 -7 16 -10 8 -3 12 -2 9 4 -6 10 -25 14 -25 6z"/>
<path d="M4570 1285 c0 -8 2 -15 4 -15 2 0 6 7 10 15 3 8 1 15 -4 15 -6 0 -10
-7 -10 -15z"/>
<path d="M4808 1293 c6 -2 18 -2 25 0 6 3 1 5 -13 5 -14 0 -19 -2 -12 -5z"/>
<path d="M5838 1293 c7 -3 16 -2 19 1 4 3 -2 6 -13 5 -11 0 -14 -3 -6 -6z"/>
<path d="M6548 1293 c7 -3 16 -2 19 1 4 3 -2 6 -13 5 -11 0 -14 -3 -6 -6z"/>
<path d="M6625 1290 c3 -5 12 -7 20 -3 21 7 19 13 -6 13 -11 0 -18 -4 -14 -10z"/>
<path d="M6685 1290 c-8 -13 5 -13 25 0 13 8 13 10 -2 10 -9 0 -20 -4 -23 -10z"/>
<path d="M6750 1290 c12 -8 12 -10 1 -10 -8 0 -12 -2 -9 -5 3 -3 13 -2 22 1
14 5 15 9 4 15 -7 5 -17 9 -23 9 -5 0 -3 -5 5 -10z"/>
<path d="M3416 1271 c-4 -7 -5 -15 -2 -18 9 -9 19 4 14 18 -4 11 -6 11 -12 0z"/>
<path d="M5005 1270 c-9 -15 31 -53 46 -44 5 3 9 2 9 -3 0 -15 81 -6 98 11 15
15 11 16 -55 16 -56 0 -74 4 -81 16 -7 13 -11 14 -17 4z"/>
<path d="M5531 1264 c0 -11 3 -14 6 -6 3 7 2 16 -1 19 -3 4 -6 -2 -5 -13z"/>
<path d="M3325 1260 c-3 -5 1 -10 9 -10 8 0 18 5 21 10 3 6 -1 10 -9 10 -8 0
-18 -4 -21 -10z"/>
<path d="M5685 1260 c-13 -6 -15 -9 -5 -9 8 0 22 4 30 9 18 12 2 12 -25 0z"/>
<path d="M6210 1260 c0 -5 5 -10 11 -10 5 0 7 5 4 10 -3 6 -8 10 -11 10 -2 0
-4 -4 -4 -10z"/>
<path d="M6578 1243 c7 -3 16 -2 19 1 4 3 -2 6 -13 5 -11 0 -14 -3 -6 -6z"/>
<path d="M5358 1233 c7 -3 16 -2 19 1 4 3 -2 6 -13 5 -11 0 -14 -3 -6 -6z"/>
<path d="M5443 1233 c15 -2 39 -2 55 0 15 2 2 4 -28 4 -30 0 -43 -2 -27 -4z"/>
<path d="M5686 1230 c5 -8 9 -18 9 -22 0 -5 4 -8 8 -9 18 -2 16 9 -5 27 -13
11 -18 13 -12 4z"/>
<path d="M3930 1226 c0 -2 8 -10 18 -17 15 -13 16 -12 3 4 -13 16 -21 21 -21
13z"/>
<path d="M5610 1220 c-13 -9 -13 -10 0 -10 8 0 0 -8 -18 -17 -23 -11 -29 -18
-20 -24 7 -4 15 -4 18 0 3 4 13 10 23 14 9 3 17 16 17 27 0 23 0 23 -20 10z"/>
<path d="M6100 1219 c0 -5 5 -7 10 -4 6 3 10 8 10 11 0 2 -4 4 -10 4 -5 0 -10
-5 -10 -11z"/>
<path d="M5440 1216 c0 -2 7 -7 16 -10 8 -3 12 -2 9 4 -6 10 -25 14 -25 6z"/>
<path d="M6375 1209 c-15 -7 -11 -8 15 -3 23 3 30 2 21 -4 -8 -6 -9 -12 -3
-16 8 -5 22 14 22 30 0 7 -34 3 -55 -7z"/>
<path d="M6480 1200 c0 -21 24 -28 35 -10 3 6 1 10 -5 10 -6 0 -8 5 -5 10 3 6
-1 10 -9 10 -9 0 -16 -9 -16 -20z"/>
<path d="M3780 1200 c0 -5 5 -10 11 -10 5 0 7 5 4 10 -3 6 -8 10 -11 10 -2 0
-4 -4 -4 -10z"/>
<path d="M5817 1190 c-3 -11 -1 -20 4 -20 5 0 9 9 9 20 0 11 -2 20 -4 20 -2 0
-6 -9 -9 -20z"/>
<path d="M6190 1200 c0 -5 5 -10 10 -10 6 0 10 5 10 10 0 6 -4 10 -10 10 -5 0
-10 -4 -10 -10z"/>
<path d="M4019 1193 c-1 -5 -1 -12 0 -17 1 -5 -5 -6 -14 -2 -11 4 -14 2 -8 -7
4 -6 6 -20 5 -29 -2 -10 2 -18 9 -18 7 0 9 3 6 7 -4 3 1 15 10 26 13 15 15 21
5 24 -6 3 -10 9 -6 14 3 5 3 9 0 9 -3 0 -7 -3 -7 -7z"/>
<path d="M6147 1185 c-4 -8 -3 -16 1 -19 4 -3 9 4 9 15 2 23 -3 25 -10 4z"/>
<path d="M3570 1180 c0 -5 5 -10 10 -10 6 0 10 5 10 10 0 6 -4 10 -10 10 -5 0
-10 -4 -10 -10z"/>
<path d="M3735 1180 c-3 -5 -1 -10 4 -10 6 0 11 5 11 10 0 6 -2 10 -4 10 -3 0
-8 -4 -11 -10z"/>
<path d="M4540 1182 c0 -7 10 -17 23 -22 12 -5 16 -9 9 -9 -15 -1 -6 -21 9
-21 16 0 10 30 -8 37 -10 4 -21 11 -25 17 -5 7 -8 7 -8 -2z"/>
<path d="M4695 1180 c-4 -6 -1 -10 5 -10 6 0 8 -5 4 -12 -5 -8 -2 -9 9 -5 10
3 17 2 17 -2 0 -5 -6 -12 -12 -14 -8 -3 -7 -6 4 -6 28 -2 29 15 3 37 -14 12
-27 17 -30 12z"/>
<path d="M4765 1173 c-19 -15 -19 -15 4 -8 15 5 21 4 17 -3 -3 -6 -2 -13 3
-17 6 -3 8 4 6 16 -6 29 -7 30 -30 12z"/>
<path d="M5415 1180 c-3 -5 -1 -10 4 -10 6 0 11 5 11 10 0 6 -2 10 -4 10 -3 0
-8 -4 -11 -10z"/>
<path d="M5659 1183 c0 -5 -2 -16 -4 -26 -2 -11 0 -16 3 -12 4 4 7 10 7 13 0
4 4 13 8 20 5 7 4 12 -2 12 -6 0 -11 -3 -12 -7z"/>
<path d="M6027 1175 c-3 -7 0 -12 8 -11 22 3 27 13 11 19 -8 3 -17 0 -19 -8z"/>
<path d="M6260 1171 c-13 -26 -13 -44 2 -39 6 2 12 16 12 31 2 32 0 33 -14 8z"/>
<path d="M6354 1174 c-18 -14 -18 -14 6 -3 31 14 36 19 24 19 -6 0 -19 -7 -30
-16z"/>
<path d="M3966 1163 c-6 -14 -5 -15 5 -6 7 7 10 15 7 18 -3 3 -9 -2 -12 -12z"/>
<path d="M4608 1173 c7 -3 16 -2 19 1 4 3 -2 6 -13 5 -11 0 -14 -3 -6 -6z"/>
<path d="M6196 1172 c-7 -11 4 -52 15 -52 4 0 5 12 3 27 -6 32 -10 38 -18 25z"/>
<path d="M4655 1160 c3 -5 1 -11 -5 -15 -5 -3 -10 -12 -10 -18 0 -9 2 -9 8 0
9 14 35 -3 45 -29 4 -13 2 -15 -10 -11 -11 4 -14 2 -9 -5 4 -7 16 -12 27 -12
16 0 19 4 13 23 -3 12 -13 29 -20 38 -8 9 -12 18 -9 21 3 3 -3 8 -15 11 -11 3
-18 1 -15 -3z"/>
<path d="M5448 1148 c-17 -17 -17 -18 2 -18 11 0 23 7 26 15 4 8 11 12 18 8 6
-3 7 -2 3 2 -13 15 -31 12 -49 -7z"/>
<path d="M3934 1146 c-8 -9 -7 -15 3 -24 8 -8 13 -9 13 -2 0 6 6 8 13 4 7 -5
7 -1 -3 12 -8 10 -14 20 -15 20 0 1 -5 -3 -11 -10z"/>
<path d="M5908 1142 c20 -21 42 -18 42 7 0 11 -3 12 -8 4 -5 -8 -13 -9 -22 -3
-25 16 -31 11 -12 -8z"/>
<path d="M6295 1150 c4 -6 11 -8 16 -5 14 9 11 15 -7 15 -8 0 -12 -5 -9 -10z"/>
<path d="M4483 1137 c0 -7 8 -14 17 -14 9 -1 17 5 17 13 0 8 -8 14 -17 14 -9
0 -17 -6 -17 -13z"/>
<path d="M4810 1140 c0 -5 5 -10 10 -10 6 0 10 5 10 10 0 6 -4 10 -10 10 -5 0
-10 -4 -10 -10z"/>
<path d="M4975 1140 c-3 -5 -1 -10 4 -10 6 0 11 5 11 10 0 6 -2 10 -4 10 -3 0
-8 -4 -11 -10z"/>
<path d="M5055 1140 c-3 -5 -1 -10 4 -10 6 0 11 5 11 10 0 6 -2 10 -4 10 -3 0
-8 -4 -11 -10z"/>
<path d="M5300 1141 c0 -5 5 -13 10 -16 6 -3 10 -2 10 4 0 5 -4 13 -10 16 -5
3 -10 2 -10 -4z"/>
<path d="M5370 1139 c-11 -6 -12 -9 -2 -9 7 0 10 -4 7 -10 -3 -6 1 -7 9 -4 9
3 16 10 16 14 0 15 -15 19 -30 9z"/>
<path d="M5535 1140 c-3 -5 -1 -10 4 -10 6 0 11 5 11 10 0 6 -2 10 -4 10 -3 0
-8 -4 -11 -10z"/>
<path d="M5695 1140 c-3 -5 -1 -10 4 -10 6 0 11 5 11 10 0 6 -2 10 -4 10 -3 0
-8 -4 -11 -10z"/>
<path d="M5765 1140 c-3 -5 1 -10 9 -10 9 0 16 5 16 10 0 6 -4 10 -9 10 -6 0
-13 -4 -16 -10z"/>
<path d="M6175 1140 c-3 -5 -1 -10 4 -10 6 0 11 5 11 10 0 6 -2 10 -4 10 -3 0
-8 -4 -11 -10z"/>
<path d="M5270 1130 c-9 -6 -10 -10 -3 -10 6 0 15 5 18 10 8 12 4 12 -15 0z"/>
<path d="M4995 1119 c-11 -16 -1 -19 13 -3 7 8 8 14 3 14 -5 0 -13 -5 -16 -11z"/>
<path d="M6165 1110 c4 -6 11 -8 16 -5 14 9 11 15 -7 15 -8 0 -12 -5 -9 -10z"/>
<path d="M4614 1098 c-3 -4 -2 -8 3 -8 4 0 1 -5 -7 -10 -12 -8 -11 -10 8 -10
12 0 22 5 22 11 0 5 4 7 10 4 5 -3 7 0 4 8 -5 15 -32 19 -40 5z"/>
<path d="M4770 1100 c0 -5 5 -10 10 -10 6 0 10 5 10 10 0 6 -4 10 -10 10 -5 0
-10 -4 -10 -10z"/>
<path d="M4850 1099 c0 -5 5 -7 10 -4 6 3 10 8 10 11 0 2 -4 4 -10 4 -5 0 -10
-5 -10 -11z"/>
<path d="M4935 1100 c-3 -5 -1 -10 4 -10 6 0 11 5 11 10 0 6 -2 10 -4 10 -3 0
-8 -4 -11 -10z"/>
<path d="M5015 1100 c-3 -5 -1 -10 4 -10 6 0 11 5 11 10 0 6 -2 10 -4 10 -3 0
-8 -4 -11 -10z"/>
<path d="M5485 1100 c-3 -5 1 -10 9 -10 9 0 16 5 16 10 0 6 -4 10 -9 10 -6 0
-13 -4 -16 -10z"/>
<path d="M5570 1099 c0 -5 5 -7 10 -4 6 3 10 8 10 11 0 2 -4 4 -10 4 -5 0 -10
-5 -10 -11z"/>
<path d="M5510 1080 c-9 -6 -10 -10 -3 -10 6 0 15 5 18 10 8 12 4 12 -15 0z"/>
<path d="M5595 1080 c-3 -6 1 -7 9 -4 18 7 21 14 7 14 -6 0 -13 -4 -16 -10z"/>
<path d="M2795 1430 c3 -5 8 -10 11 -10 2 0 4 5 4 10 0 6 -5 10 -11 10 -5 0
-7 -4 -4 -10z"/>
</g>
</svg>
