<?xml version="1.0" encoding="UTF-8"?>
<svg version="1.1" xmlns="http://www.w3.org/2000/svg" width="512" height="512">
<path d="M0 0 C1.54300781 0.29801514 1.54300781 0.29801514 3.1171875 0.60205078 C64.76920283 12.93799809 122.59461598 46.7649689 160 98 C160.47888672 98.64517578 160.95777344 99.29035156 161.45117188 99.95507812 C169.49439418 110.82231867 176.60010879 122.09134166 183 134 C183.62986816 135.16547363 183.62986816 135.16547363 184.27246094 136.35449219 C196.84653769 160.0400872 204.92811513 186.55896217 209 213 C209.18111328 214.05251953 209.36222656 215.10503906 209.54882812 216.18945312 C211.42504896 228.17456486 211.39622078 240.14427463 211.375 252.25 C211.37478851 253.35950012 211.37457703 254.46900024 211.37435913 255.61212158 C211.34239807 272.40122264 210.64792993 288.5515851 207 305 C206.81276367 305.88558594 206.62552734 306.77117187 206.43261719 307.68359375 C197.14507366 350.86505691 176.41952807 392.16050689 146.28125 424.53125 C144.38769392 426.58044082 142.5940214 428.6674028 140.8125 430.8125 C107.14349268 469.26894193 56.32044125 494.54809005 7 505 C6.04287109 505.21172852 5.08574219 505.42345703 4.09960938 505.64160156 C-27.6710422 512.40063094 -64.30870524 511.83835208 -96 505 C-96.90878906 504.81808105 -97.81757813 504.63616211 -98.75390625 504.44873047 C-137.92595816 496.56500275 -173.71349867 478.49076323 -205 454 C-205.54446777 453.57557617 -206.08893555 453.15115234 -206.64990234 452.71386719 C-221.47588761 441.02315961 -235.73115763 427.16451639 -247 412 C-247.89578011 410.82157412 -248.7916176 409.64319186 -249.6875 408.46484375 C-255.61498305 400.59392364 -261.04892898 392.52632896 -266 384 C-266.38510742 383.34725098 -266.77021484 382.69450195 -267.16699219 382.02197266 C-287.71520518 347.04438408 -300.97604736 305.48870929 -301.203125 264.6796875 C-301.21018463 263.82649933 -301.21724426 262.97331116 -301.22451782 262.0942688 C-301.45571638 225.92339853 -301.45571638 225.92339853 -298 208 C-297.80664062 206.98196289 -297.61328125 205.96392578 -297.4140625 204.91503906 C-287.41197866 154.02480693 -262.83308046 109.12747229 -227 72 C-226.10023438 71.05898437 -225.20046875 70.11796875 -224.2734375 69.1484375 C-218.54542689 63.27495361 -212.44817758 58.06456053 -206 53 C-205.01386719 52.20851562 -204.02773437 51.41703125 -203.01171875 50.6015625 C-169.75221095 24.34187639 -130.53176585 7.69240533 -89 0 C-88.15083008 -0.16516113 -87.30166016 -0.33032227 -86.42675781 -0.50048828 C-58.96163908 -5.66153955 -27.40227186 -5.30966723 0 0 Z M-85.9921875 113.1875 C-94.6569305 125.32488319 -97.61235886 138.43498966 -95.5703125 153.08203125 C-92.15538261 169.16592943 -81.46695775 179.77309806 -69.42114258 190.06567383 C-64.34512457 194.50056643 -59.62504445 199.26838803 -54.8828125 204.0546875 C-53.93526338 205.00665289 -52.98741224 205.95831774 -52.03927612 206.90969849 C-49.06498998 209.89529357 -46.09471867 212.88486264 -43.125 215.875 C-39.65985667 219.3637848 -36.19306549 222.85090022 -32.7220726 226.33386612 C-31.33846999 227.72394501 -29.95792505 229.11706516 -28.5774231 230.51022339 C-27.74250336 231.34844635 -26.90758362 232.18666931 -26.04736328 233.05029297 C-25.31204376 233.7908493 -24.57672424 234.53140564 -23.81912231 235.29440308 C-21.39603609 237.56627252 -20.20359344 237.96742505 -16.875 238.5 C-11.27755063 237.77774847 -8.86971885 234.91852611 -5 231 C-4.19175781 230.19304687 -3.38351562 229.38609375 -2.55078125 228.5546875 C-0.91983156 226.92124018 0.7022068 225.27881464 2.3125 223.625 C4.35204337 221.63288787 6.3973903 219.77764003 8.55810547 217.92651367 C16.44887644 211.0440539 23.78672061 203.55641085 31.21826172 196.18676758 C33.15165331 194.2711874 35.0932035 192.3644985 37.04248047 190.46508789 C39.8815515 187.69848161 42.69524122 184.90683407 45.5078125 182.11328125 C46.37044708 181.27847733 47.23308167 180.4436734 48.12185669 179.58357239 C57.11020923 170.56460565 63.1202353 159.51478088 63.38037109 146.59375 C63.34586877 131.93967188 59.48029665 119.64031579 49.25 108.75 C38.88561418 99.01375877 26.48134611 94.3633525 12.36914062 94.52514648 C2.93757371 94.90753593 -5.74053623 97.3909195 -13.31640625 103.14453125 C-15 104 -15 104 -16.8515625 103.8203125 C-20.67230132 102.36148495 -24.21806657 100.37548112 -27.83203125 98.47265625 C-48.17018946 89.01829664 -71.9093227 96.63130052 -85.9921875 113.1875 Z M65.25 218.359375 C64.35128174 219.26375305 63.45256348 220.1681311 62.52661133 221.09991455 C60.1585693 223.48646174 57.79958631 225.8812753 55.44464111 228.28070068 C53.0316952 230.73483254 50.60714438 233.17744194 48.18359375 235.62109375 C43.44505088 240.40360013 38.71812933 245.19735828 34 250 C28.34331582 248.15828887 28.34331582 248.15828887 25.7131958 246.94564819 C22.43363632 245.8026015 19.74889848 245.74832983 16.27636719 245.74462891 C15.62019409 245.74100845 14.964021 245.737388 14.28796387 245.73365784 C12.86773819 245.72678658 11.44748623 245.72425413 10.02724457 245.72560501 C7.7620652 245.72657744 5.49735128 245.71353777 3.23223877 245.69662476 C-3.20678962 245.65061351 -9.64577371 245.62582637 -16.08496094 245.61914062 C-20.03320081 245.61405477 -23.98096263 245.5894427 -27.929039 245.55381393 C-29.41656336 245.54416473 -30.90415484 245.54160038 -32.39170074 245.54698563 C-42.11341109 245.58048197 -50.87736516 244.44190844 -60.28582764 241.95370483 C-80.92166507 236.65494754 -101.62879755 240.27979922 -119.9375 250.75 C-127.10964708 255.17560394 -133.45190478 260.16077686 -138.9375 266.5625 C-140.87109375 268.59375 -140.87109375 268.59375 -143 270 C-145.91838089 270.03428348 -148.29185195 269.62237391 -151.09375 268.81640625 C-158.77291064 269.30151452 -166.53132079 280.38619872 -171.71484375 285.58203125 C-172.61119034 286.47742111 -173.50753693 287.37281097 -174.43104553 288.29533386 C-176.31049602 290.17410776 -178.18892187 292.05383991 -180.06567383 293.93530273 C-182.47204276 296.34741773 -184.88294124 298.75494807 -187.29515743 301.16121387 C-189.60414433 303.46573023 -191.90933144 305.7740396 -194.21484375 308.08203125 C-195.08141098 308.94657425 -195.94797821 309.81111725 -196.84080505 310.70185852 C-198.0332357 311.89901741 -198.0332357 311.89901741 -199.24975586 313.12036133 C-200.30277138 314.17457024 -200.30277138 314.17457024 -201.37705994 315.25007629 C-203.58697744 317.63290429 -203.97816015 318.86350094 -204.5 322.125 C-203.97120855 326.22313375 -203.59192512 326.86809584 -200.94750977 329.75137329 C-200.30911163 330.45069599 -199.6707135 331.15001869 -199.01296997 331.87053299 C-195.82853624 335.23926013 -192.60739833 338.56483557 -189.33984375 341.85302734 C-188.2432695 342.96186783 -188.2432695 342.96186783 -187.12454224 344.09310913 C-184.73185873 346.51037855 -182.33524874 348.92369278 -179.9375 351.3359375 C-179.11418182 352.16457935 -178.29086365 352.99322121 -177.44259644 353.84697342 C-173.09352605 358.22264372 -168.74087581 362.59472043 -164.38574219 366.96435547 C-160.78820741 370.57528158 -157.19810076 374.19335627 -153.61425781 377.81787109 C-149.27304381 382.20833264 -144.9197488 386.58645791 -140.55740356 390.95592117 C-138.90097797 392.61906087 -137.24881113 394.28645359 -135.6010437 395.95817184 C-133.29900133 398.29178618 -130.98173398 400.60918185 -128.66015625 402.92333984 C-127.98566437 403.61423706 -127.31117249 404.30513428 -126.61624146 405.01696777 C-122.71518884 408.8672352 -119.66472487 411.38251404 -114 412 C-109.48785451 410.42174198 -106.54427935 407.916276 -103.20385742 404.56030273 C-102.30660446 403.66605087 -101.4093515 402.77179901 -100.48490906 401.85044861 C-99.52485948 400.87839682 -98.56505167 399.9061062 -97.60546875 398.93359375 C-96.60811394 397.93317779 -95.61016419 396.93335463 -94.61164856 395.93409729 C-92.5285572 393.84641975 -90.45045325 391.75394969 -88.3762207 389.6574707 C-85.71540594 386.96826465 -83.04588835 384.28791382 -80.37307262 381.61064053 C-78.31628245 379.54969935 -76.26233872 377.48594256 -74.20943642 375.42112923 C-73.22548278 374.43147544 -72.24105737 373.44229048 -71.25615501 372.45358086 C-69.88453131 371.07509877 -68.51675412 369.69279249 -67.14916992 368.31030273 C-66.3700676 367.52437241 -65.59096527 366.73844208 -64.78825378 365.92869568 C-62.42203927 363.37664868 -62.03799976 362.32299793 -61.625 358.8125 C-62.11860588 353.79417356 -63.84741535 351.8619162 -67 348 C-66.40445313 347.72336517 -65.80890625 347.44673035 -65.1953125 347.16171265 C-63.02661635 346.11284594 -63.02661635 346.11284594 -61.4921875 344.73208618 C-54.5593291 339.07545879 -45.44401774 340.33113427 -37 340.3984375 C-35.23696922 340.39293059 -33.47394487 340.38479992 -31.7109375 340.37417603 C-27.08448601 340.35135893 -22.45850826 340.35548291 -17.83203125 340.36798096 C-10.42859671 340.38632999 -3.02543923 340.37620812 4.37792969 340.34212112 C6.95269128 340.33604907 9.52684846 340.34923545 12.1015625 340.36410522 C13.69270988 340.3611552 15.28385617 340.35749931 16.875 340.35302734 C17.58172852 340.36231766 18.28845703 340.37160797 19.01660156 340.38117981 C27.16039243 340.31685528 34.75391377 337.27305407 40.53759766 331.45263672 C42.17372848 329.64817759 43.74952459 327.80563 45.3125 325.9375 C45.88081543 325.26992676 46.44913086 324.60235352 47.03466797 323.91455078 C51.00382717 319.23617229 54.90212191 314.50030217 58.765625 309.734375 C63.56338071 303.86299564 68.50569805 298.11122698 73.41601562 292.33398438 C78.90270514 285.87593074 84.33777129 279.38502384 89.6875 272.8125 C91.79963259 270.24369009 93.93520134 267.69831331 96.08789062 265.16357422 C97.0264755 264.05784854 97.96269219 262.95010813 98.89648438 261.84033203 C101.09413903 259.22964849 103.31066276 256.65471519 105.59375 254.1171875 C111.90439163 246.92551473 115.56587222 240.15722701 114.9375 230.375 C113.76263731 223.31319092 110.63368872 215.6163183 105 211 C98.78702498 206.99608277 93.0056273 204.31908907 85.546875 204.3984375 C76.75358447 206.47538036 71.36741936 212.09433451 65.25 218.359375 Z " fill="#55B7DD" transform="translate(301,3)"/>
<path d="M0 0 C4.1706228 1.17898807 4.1706228 1.17898807 5.83073425 3.80021667 C6.90330924 7.01794164 7.5303469 9.38191103 5.97135925 12.54240417 C4.36733695 14.74085828 2.62997383 16.75712412 0.83073425 18.80021667 C-0.09015004 19.87696386 -1.00928827 20.95520577 -1.92707825 22.03459167 C-3.9935228 24.45921995 -6.07040304 26.87438265 -8.15364075 29.28459167 C-11.47375359 33.13792214 -14.68570681 37.07453198 -17.891922 41.02287292 C-20.91346519 44.70780811 -23.99962526 48.33589989 -27.08576965 51.96672058 C-29.96484418 55.35995142 -32.80138067 58.78298387 -35.60676575 62.23771667 C-39.55840866 67.09420806 -43.62117027 71.84594404 -47.71003723 76.58659363 C-51.64019616 81.15359846 -55.46062328 85.79588572 -59.23176575 90.49552917 C-59.87114075 91.25607605 -60.51051575 92.01662292 -61.16926575 92.80021667 C-61.70540497 93.49943741 -62.24154419 94.19865814 -62.79393005 94.91906738 C-66.10644611 97.54241752 -69.06960829 97.30674466 -73.11213684 97.20329285 C-74.30823074 97.19711441 -74.30823074 97.19711441 -75.52848816 97.19081116 C-77.25930835 97.18005795 -78.9900912 97.16052354 -80.72072983 97.13324547 C-83.47243915 97.09274779 -86.22284719 97.08142426 -88.97483826 97.07861328 C-96.79844663 97.06687053 -104.62119874 97.01500608 -112.44416809 96.91374207 C-117.23430902 96.85380265 -122.02297289 96.83857502 -126.81344986 96.84989357 C-128.62737019 96.84547566 -130.44133754 96.82449966 -132.25484848 96.78571129 C-146.70463767 96.48264885 -154.86536928 99.36389651 -165.79972839 109.15585327 C-168.16926575 110.80021667 -168.16926575 110.80021667 -170.17799377 110.83270264 C-172.95940311 109.39052591 -174.82197531 107.50551204 -177.02961731 105.28044128 C-177.4983728 104.81212387 -177.9671283 104.34380646 -178.4500885 103.86129761 C-179.993909 102.31539121 -181.52683835 100.75913985 -183.05989075 99.20256042 C-184.12968969 98.12716483 -185.20015399 97.05243076 -186.27125549 95.97833252 C-189.08582155 93.15232318 -191.89126153 90.31742025 -194.69490051 87.48057556 C-197.55850603 84.58625815 -200.43064435 81.70043591 -203.30207825 78.81388855 C-208.93286391 73.15094785 -214.55403758 67.47858395 -220.16926575 61.80021667 C-214.25318391 49.54874105 -199.91484425 41.73014102 -187.766922 36.83146667 C-172.04201905 31.59790884 -153.53259721 34.67910619 -138.16926575 39.80021667 C-135.96734767 39.9031278 -133.76247149 39.94606928 -131.55818176 39.95793152 C-130.89117249 39.96301224 -130.22416321 39.96809296 -129.53694153 39.97332764 C-128.08991364 39.98401896 -126.64286934 39.99264399 -125.19581795 39.99944687 C-122.90505489 40.0112475 -120.61447936 40.03070232 -118.3237915 40.05256653 C-111.81132745 40.11414993 -105.29888395 40.16825242 -98.78620911 40.20158386 C-94.80146492 40.22252612 -90.81706508 40.25782262 -86.83251762 40.30234146 C-85.31472258 40.31650234 -83.79686665 40.32522411 -82.27900887 40.32839584 C-80.15555381 40.33330355 -78.03301348 40.35645489 -75.90974426 40.38371277 C-74.09797447 40.39584305 -74.09797447 40.39584305 -72.24960327 40.40821838 C-68.89899197 40.83461124 -67.50629679 41.39525463 -65.16926575 43.80021667 C-64.06553197 47.77365829 -63.75382992 49.89021439 -65.48176575 53.67521667 C-67.16926575 55.80021667 -67.16926575 55.80021667 -69.16926575 56.80021667 C-70.83814524 56.89390832 -72.51069804 56.92535341 -74.1822052 56.92619324 C-75.7494207 56.93190338 -75.7494207 56.93190338 -77.34829712 56.93772888 C-78.48159958 56.9387561 -79.61490204 56.93978333 -80.782547 56.94084167 C-83.16862426 56.95916851 -85.55469224 56.9787387 -87.94075012 56.99943542 C-91.71328879 57.0284266 -95.48523142 57.05021712 -99.25788879 57.05070496 C-102.89164991 57.05403497 -106.52402585 57.08856221 -110.157547 57.12834167 C-111.28477676 57.12127197 -112.41200653 57.11420227 -113.57339478 57.10691833 C-120.03754115 57.03538938 -120.03754115 57.03538938 -125.36140442 60.21720886 C-127.56294926 63.25648651 -127.56294926 63.25648651 -128.16926575 66.80021667 C-127.09157917 70.81704845 -125.6957457 72.65126385 -122.16926575 74.80021667 C-119.61412717 75.25806001 -119.61412717 75.25806001 -116.80915833 75.20426941 C-115.73736832 75.21695358 -114.66557831 75.22963776 -113.56130981 75.2427063 C-111.83004097 75.23830284 -111.83004097 75.23830284 -110.063797 75.23381042 C-108.87001938 75.23905228 -107.67624176 75.24429413 -106.44628906 75.24969482 C-103.91865313 75.25611965 -101.39098732 75.25477213 -98.86335754 75.2462616 C-95.01360541 75.23778677 -91.16535433 75.26645271 -87.31575012 75.29826355 C-84.85676619 75.29987663 -82.39777965 75.29929599 -79.938797 75.29631042 C-78.79473892 75.3075444 -77.65068085 75.31877838 -76.47195435 75.33035278 C-67.87524222 75.25619962 -62.06797627 73.34937356 -54.91926575 68.67521667 C-49.21509027 62.71176049 -46.6835818 56.22129015 -46.30989075 48.02677917 C-46.00330433 43.17249431 -44.7269519 40.97456679 -41.29548645 37.47477722 C-40.47405655 36.63098007 -39.65262665 35.78718292 -38.80630493 34.91781616 C-37.91158981 34.01662552 -37.01687469 33.11543488 -36.095047 32.18693542 C-35.1784581 31.25798965 -34.2618692 30.32904388 -33.31750488 29.37194824 C-31.37684684 27.40883439 -29.42984461 25.45225971 -27.4790802 23.49919128 C-24.98130373 20.99612399 -22.5073859 18.47081919 -20.03860188 15.93919659 C-17.67714115 13.52704822 -15.29087459 11.13997894 -12.907547 8.74943542 C-11.58065605 7.38246773 -11.58065605 7.38246773 -10.22695923 5.98788452 C-9.38976852 5.15984818 -8.55257782 4.33181183 -7.6900177 3.47868347 C-6.59533928 2.37426155 -6.59533928 2.37426155 -5.47854614 1.24752808 C-3.16926575 -0.19978333 -3.16926575 -0.19978333 0 0 Z " fill="#55B6DD" transform="translate(390.1692657470703,227.1997833251953)"/>
<path d="M0 0 C3.37761357 2.34964422 6.09862719 5.09862719 9 8 C12.01778937 9.50889469 13.62322637 9.50026276 17 9 C19.18352435 7.41672736 21.09112065 5.66424957 23.0546875 3.81640625 C30.57489664 -3.20547578 38.08420022 -4.58909734 48.09765625 -4.44140625 C55.67112168 -3.584748 62.27276293 -0.26669568 67.5 5.3125 C68.8203125 7.11328125 68.8203125 7.11328125 70 9 C70.40992188 9.63292969 70.81984375 10.26585937 71.2421875 10.91796875 C75.33321531 18.43699572 74.90291887 27.12142181 73.6328125 35.390625 C71.25820709 43.39271993 63.79868235 49.42863808 57.82115173 54.82148743 C51.8225313 60.23551288 46.08865916 65.87368561 40.43359375 71.64453125 C39.69943237 72.39131134 38.965271 73.13809143 38.2088623 73.90750122 C35.16981622 77.00061211 32.13291296 80.09545814 29.11401367 83.20825195 C26.87758925 85.51082181 24.62594382 87.7975223 22.37109375 90.08203125 C21.6888121 90.79325638 21.00653046 91.50448151 20.30357361 92.23725891 C19.66513016 92.87930771 19.02668671 93.52135651 18.36889648 94.18286133 C17.81298325 94.75289383 17.25707001 95.32292633 16.68431091 95.91023254 C15 97 15 97 13.12367249 96.98306274 C10.03986782 95.55554814 8.0680109 93.47436311 5.65234375 91.08813477 C5.131492 90.57735886 4.61064026 90.06658295 4.07400513 89.54032898 C2.35379494 87.84861954 0.64512728 86.14581026 -1.0625 84.44140625 C-2.25767409 83.25587681 -3.45307134 82.07057231 -4.64868164 80.88548279 C-7.15560998 78.39652475 -9.65625051 75.90143451 -12.15332031 73.40258789 C-15.33906598 70.21653849 -18.54487672 67.05156566 -21.75654602 63.89167881 C-24.23431609 61.44744083 -26.69815219 58.98950825 -29.15841675 56.52766228 C-30.33364245 55.35595563 -31.51368756 54.18906077 -32.69876099 53.02731514 C-40.10300124 45.75522181 -45.89217692 39.33605675 -47.49609375 28.71484375 C-47.26258729 17.64663748 -45.09264751 11.28207723 -37.34765625 3.171875 C-27.09439112 -6.31367477 -11.99518173 -6.67160584 0 0 Z M6 19 C4.37495954 21.32133835 3.02428607 23.75398958 1.6875 26.25 C1.32849609 26.8996875 0.96949219 27.549375 0.59960938 28.21875 C-0.27642786 29.80729753 -1.13955805 31.40295142 -2 33 C-4.06489124 31.04040066 -5.38391531 29.39316613 -6.9375 26.9375 C-9.09033809 23.87133666 -9.58811072 23.17386544 -13 22 C-15.98294397 21.68777438 -18.94039248 21.67546342 -21.9375 21.6875 C-22.73607422 21.67138672 -23.53464844 21.65527344 -24.35742188 21.63867188 C-29.07334053 21.63476473 -32.16574289 21.9618077 -36 25 C-38.31141604 27.85074644 -39 29.3139451 -39 33 C-37.62672697 37.11981908 -36.68438445 38.5909794 -33 41 C-28.63518219 41.41796437 -24.370492 41.28795335 -20 41 C-19.74992187 41.67804688 -19.49984375 42.35609375 -19.2421875 43.0546875 C-17.76768243 46.55084104 -15.99181941 49.82857168 -14.125 53.125 C-13.78597656 53.74503906 -13.44695312 54.36507812 -13.09765625 55.00390625 C-11.15653924 58.43591921 -9.47611353 61.05032355 -6 63 C-2.08659478 63.49806976 0.10395957 63.57460371 3.4609375 61.421875 C6.51576995 58.50803482 8.24142837 55.51876118 10.1875 51.8125 C13.75873886 45.12063057 13.75873886 45.12063057 16 44 C16.3403125 45.299375 16.3403125 45.299375 16.6875 46.625 C18.360733 50.92759914 20.72324479 54.86162239 25 57 C28.93124675 57.29599687 32.8714177 57.27802989 36.8125 57.3125 C37.90626953 57.34150391 39.00003906 57.37050781 40.12695312 57.40039062 C46.46538569 57.50573459 46.46538569 57.50573459 52.19921875 55.10546875 C54.53957262 52.3691331 54.96280793 51.32852998 55.375 47.6875 C55.33055459 43.85793506 55.33055459 43.85793506 52.625 41.125 C48.46749071 37.75939724 45.54348701 37.8755163 40.375 37.9375 C39.31539062 37.94426758 39.31539062 37.94426758 38.234375 37.95117188 C36.48954725 37.96296125 34.744763 37.98089676 33 38 C32.76023437 37.33226562 32.52046875 36.66453125 32.2734375 35.9765625 C30.67840442 32.248295 28.70272898 28.85146156 26.625 25.375 C26.23828125 24.70726562 25.8515625 24.03953125 25.453125 23.3515625 C23.38085639 19.87460175 21.63760756 17.01433441 18 15 C12.37383894 14.28394314 10.04925142 15.14327434 6 19 Z " fill="#55B5DD" transform="translate(271,121)"/>
<path d="M0 0 C4.25556298 1.65013765 7.09579796 4.82944222 10.23730469 8.01025391 C10.85236374 8.6250209 11.46742279 9.2397879 12.10112 9.8731842 C14.12948258 11.90293824 16.15067226 13.93968075 18.171875 15.9765625 C19.57819697 17.38661525 20.98496164 18.79622658 22.39215088 20.20541382 C26.09222618 23.91312042 29.78625567 27.62679424 33.47906494 31.34173584 C37.24934253 35.13248259 41.02529761 38.91756457 44.80078125 42.703125 C52.2060936 50.12987841 59.60503232 57.56294714 67 65 C65.07139535 69.21676405 62.17029862 72.08321791 58.8984375 75.296875 C58.30197418 75.89050842 57.70551086 76.48414185 57.0909729 77.09576416 C55.1903019 78.98526627 53.28278526 80.86768392 51.375 82.75 C50.08287532 84.03209065 48.79120324 85.31463761 47.5 86.59765625 C44.33855521 89.73708432 41.1709539 92.87017801 38 96 C33.74443702 94.34986235 30.90420204 91.17055778 27.76269531 87.98974609 C27.14763626 87.3749791 26.53257721 86.7602121 25.89888 86.1268158 C23.87051742 84.09706176 21.84932774 82.06031925 19.828125 80.0234375 C18.42180303 78.61338475 17.01503836 77.20377342 15.60784912 75.79458618 C11.90777382 72.08687958 8.21374433 68.37320576 4.52093506 64.65826416 C0.75065747 60.86751741 -3.02529761 57.08243543 -6.80078125 53.296875 C-14.2060936 45.87012159 -21.60503232 38.43705286 -29 31 C-27.07139535 26.78323595 -24.17029862 23.91678209 -20.8984375 20.703125 C-20.30197418 20.10949158 -19.70551086 19.51585815 -19.0909729 18.90423584 C-17.1903019 17.01473373 -15.28278526 15.13231608 -13.375 13.25 C-12.08287532 11.96790935 -10.79120324 10.68536239 -9.5 9.40234375 C-6.33855521 6.26291568 -3.1709539 3.12982199 0 0 Z " fill="#56BDDD" transform="translate(149,295)"/>
</svg>
